<?xml version="1.0" encoding="utf-8"?>
<!-- Generator: Adobe Illustrator 25.0.0, SVG Export Plug-In . SVG Version: 6.00 Build 0)  -->
<svg version="1.2" baseProfile="tiny" id="фоны"
	 xmlns="http://www.w3.org/2000/svg" xmlns:xlink="http://www.w3.org/1999/xlink" x="0px" y="0px" viewBox="0 0 60 85"
	 overflow="visible" xml:space="preserve">
<rect id="Google__x2F__Ameba" fill="#FFFFFF" width="60" height="85"/>
<g id="Ameba">
	<path fill-rule="evenodd" fill="#2D8C3C" d="M20.3659515,45.4866676c-0.1314411-0.3325729-0.3626366-0.4904709-0.7969551-0.787075
		l-0.0175152-0.0119705c-0.3329411-0.2283211-0.5634575-0.5382042-0.6044483-1.1687431
		c-0.0246258-0.3953667,0.0017776-0.7175865,0.0312138-1.0766182c0.031683-0.3863754,0.0668697-0.8153076,0.0456429-1.4239388
		c-0.0307426-0.902359-0.3380642-1.5872917-0.5275917-1.9895477c-0.2253933-0.4674911-0.2663841-0.8045197-0.2817554-1.3481178
		c-0.0084171-0.2719727-0.006012-0.7279778-0.0038681-1.1403542v-0.0000229v-0.0000191v-0.0000191
		c0.0017776-0.3376541,0.0033989-0.6460533-0.001255-0.8002205c-0.0102482-0.3424644-0.1434135-0.5653381-0.3636837-0.679493
		c-0.2714539-0.1358986-0.5583324-0.092411-0.8041687,0.190258c-0.2253952,0.2609215-0.6300678,0.7175446-0.9066467,0.9893417
		c-0.3636827,0.3533401-0.5993242,0.4348755-0.9220324,0.4348755c-0.3227091,0-0.553216-0.0761032-0.9220228-0.4348755
		c-0.2766047-0.2663574-0.6863861-0.7284203-0.9066505-0.9893417c-0.2458677-0.2772331-0.5327206-0.3207207-0.8042021-0.190258
		c-0.2253828,0.1087189-0.3534403,0.3315926-0.3688068,0.679493c-0.0046167,0.1567116-0.0029955,0.4667473-0.0012226,0.8053894
		v0.0000038v0.0000114v0.0000038v0.0000305c0.0021639,0.4131165,0.0045433,0.8687973-0.0039005,1.1406288
		c-0.0153666,0.5435982-0.0563459,0.8751945-0.2817297,1.3481178c-0.1895218,0.4022636-0.4968643,1.0817566-0.5275965,1.9895554
		c-0.0212421,0.6086311,0.0139446,1.0375633,0.0456333,1.4239349c0.0294456,0.3590317,0.0558748,0.6812553,0.0312023,1.076622
		c-0.0409794,0.6305351-0.2714863,0.9404182-0.6044321,1.1687393l-0.0439234,0.0303268
		c-0.4127245,0.284893-0.6418419,0.4431-0.7705278,0.7687225c-0.0922022,0.2391968-0.0922022,0.5816498,0.1792812,0.7284126
		c0.1741581,0.0924339,0.3841734,0.0761223,0.599309-0.0163155c0.0427465-0.0178261,0.0851641-0.038166,0.1273365-0.0583458
		h0.000021h0.00002h0.000021c0.1245813-0.0596581,0.2470236-0.1182671,0.3694715-0.1101608
		c0.1280575,0.0054359,0.2305012,0.081562,0.2458677,0.2990074c0.0204897,0.2283211,0.117815,0.3207054,0.2766047,0.3207054
		c0.1280575,0,0.2458735-0.0923843,0.3380747-0.3424568c0.0172119-0.0471077,0.0328178-0.0931702,0.0477085-0.1371384
		l0.000021-0.0000534l0.0000257-0.000103h0.0000057c0.0692596-0.2045326,0.1228714-0.3627968,0.2493343-0.3627968
		c0.1639128,0.0054398,0.199769,0.1902618,0.2100172,0.4511566c0.0153656,0.3750801-0.117816,0.6632118-0.379055,0.9186707
		c-0.3022184,0.2935677-0.5275965,0.5707741-0.4456425,0.9349823c0.0563459,0.2555084,0.3227091,0.4240189,0.7427378,0.4457664
		c0.4302759,0.0163116,1.1269102,0.0217514,1.6084089,0.0108757c0.4507656-0.0108757,0.7119999-0.2174454,0.7632275-0.4947052
		c0.0324993-0.1638031,0.0005589-0.2729187-0.0299482-0.3771706c-0.0271921-0.0928574-0.0532446-0.1818962-0.0315218-0.3023033
		c0.0256138-0.1413231,0.1485472-0.2011337,0.2817287-0.2011337s0.2612238,0.0598106,0.2817192,0.2011337
		c0.0189257,0.1180038-0.0069542,0.2058411-0.0337229,0.2967606c-0.0311613,0.1059265-0.0635767,0.2159805-0.0277624,0.3827133
		c0.0563612,0.2718201,0.3124971,0.4783936,0.7632332,0.4947052c0.4815292,0.0108757,1.1781521,0.0054398,1.6033211-0.0163116
		c0.4199924-0.0217514,0.6863747-0.190258,0.7427368-0.4457703c0.0819283-0.3642044-0.143465-0.6359749-0.4456635-0.9349823
		c-0.2612591-0.255455-0.3944244-0.5435905-0.3790531-0.9186707c0.0102463-0.2608948,0.0512371-0.4457169,0.210022-0.4511528
		c0.1274662-0.0045471,0.1809521,0.1555443,0.2510109,0.3654099v0.0000496l0.0000534,0.0000534v0.0001068
		c0.0143776,0.043026,0.0294876,0.0881996,0.0460091,0.1344719c0.0922279,0.2500725,0.210022,0.3424568,0.3381176,0.3424568
		c0.158783,0,0.2560825-0.0978241,0.276577-0.3207054c0.0204964-0.2228851,0.1229191-0.2935715,0.2458897-0.2990112
		c0.122448-0.0081024,0.244894,0.0505066,0.3694344,0.1101608c0.0421925,0.0201836,0.0846462,0.0405197,0.1274147,0.058403
		c0.2202702,0.0923843,0.425169,0.108696,0.5993233,0.0162582C20.4581261,46.0683212,20.4581261,45.7258644,20.3659515,45.4866676z
		 M13.2510853,39.7354546c0.1946507,0,0.3483171-0.1685143,0.3483171-0.369648c0-0.2065659-0.1587896-0.3696442-0.3483171-0.3696442
		c-0.1946459,0-0.3483171,0.1685143-0.3483171,0.3696442C12.897644,39.5669403,13.0564394,39.7354546,13.2510853,39.7354546z
		 M17.523201,39.3658066c0,0.2011337-0.1537132,0.369648-0.3483639,0.369648c-0.1946526,0-0.3534355-0.1685143-0.3483124-0.369648
		c0-0.2011299,0.1536617-0.3696442,0.3483124-0.3696442C17.3643627,38.9961624,17.523201,39.1592407,17.523201,39.3658066z
		 M15.2078466,39.7028313c0.8195791,0,1.4086561,0.1956902,1.9721136,0.7066498
		c0.3893013,0.3533859,0.6453857,1.0546112,0.3380642,1.5764503c-0.1485386,0.2663841-0.4354172,0.4783401-0.7786045,0.5109634
		c-0.4559116,0.043499-0.7376137-0.1304474-0.916893-0.3424568c-0.1741562-0.2011337-0.3585596-0.3913918-0.6198034-0.3913918
		c-0.2612391,0-0.4456425,0.190258-0.6197987,0.3913918c-0.179285,0.2120094-0.4661322,0.3859558-0.9168987,0.3424568
		c-0.3380747-0.0326233-0.6300459-0.2445793-0.7785931-0.5109634c-0.2919712-0.5272789-0.0409803-1.2285042,0.3483171-1.5764503
		C13.8043318,39.8985214,14.3882732,39.7028313,15.2078466,39.7028313z M14.4035664,40.5454178
		c0-0.369648,0.3534412-0.657753,0.8093262-0.657753c0.4558687,0,0.8093052,0.288105,0.8093052,0.6577568
		c0,0.3696404-0.3534365,0.6577225-0.8093052,0.6577225C14.7570076,41.2031441,14.4035664,40.915062,14.4035664,40.5454178z
		 M13.5892324,44.9811401c0-0.9512978,0.7273664-1.7232094,1.6237755-1.7232094
		c0.8912745,0,1.6237631,0.7719116,1.6237631,1.7232094c0,0.9512939-0.7273655,1.7232056-1.6237631,1.7232056
		C14.3165989,46.7043457,13.5892324,45.9324341,13.5892324,44.9811401z"/>
	<g>
		<path d="M24.7864056,38.512352c-1.1269169,0-2.1257381,0.8371315-2.3716259,1.9841309
			c-0.046114,0.2174454-0.0666084,0.5327148-0.0666084,1.0219307v3.8595581c0,0.3642044,0.2766304,0.6577263,0.6198177,0.6577263
			s0.6146946-0.2935219,0.6146946-0.6577263v-1.5492592h2.4126167v1.5492592c0,0.3642044,0.2765789,0.6577263,0.6146431,0.6577263
			c0.3431873,0,0.6198177-0.2935219,0.6198177-0.6577263v-3.8595581c0-0.4946518-0.0204945-0.8099213-0.0666084-1.0219307
			C26.9121933,39.3440552,25.9133205,38.512352,24.7864056,38.512352z M23.5775623,42.5186462v-1.0002327
			c0-0.5109634,0.0256176-0.6794739,0.0358658-0.7284126c0.1229172-0.5599022,0.6146431-0.9675865,1.1678524-0.9675865
			c0.5583344,0,1.0501118,0.4076843,1.1679058,0.9675865c0.0102482,0.0489388,0.0358658,0.2228851,0.0358658,0.7284126v1.0002327
			H23.5775623z"/>
		<path d="M44.717083,42.2251282c-0.0256195-1.2394295-0.9271431-2.2015839-2.0796738-2.2015839
			c-0.327816,0-0.6351395,0.0815392-0.9117699,0.2228661v-1.1143608c0-0.3424683-0.2612076-0.6196976-0.5839539-0.6196976
			c-0.3226929,0-0.5839005,0.2772293-0.5839005,0.6196976v4.2454567c0,0.4294548,0.0153198,0.8262863,0.0819283,1.076355
			c0.2510109,0.9186707,1.0500603,1.5872726,1.9976959,1.5872726c1.1166687,0,2.0489311-0.9839211,2.0796738-2.1906738
			C44.7324562,43.3666801,44.7273293,42.7795944,44.717083,42.2251282z M43.5491753,43.8178368
			c-0.015316,0.5435905-0.4251137,0.9839211-0.9117699,0.9839211c-0.5019722,0-0.9066467-0.4403305-0.9117699-0.9676094
			s-0.0051231-1.0763054,0-1.5981445c0.0051231-0.5218925,0.4097977-0.9676094,0.9117699-0.9676094
			c0.5020256,0,0.8964539,0.4294052,0.9117699,0.9730453C43.5594215,42.7850304,43.5594215,43.3558083,43.5491753,43.8178368z"/>
		<path d="M32.5465622,40.0235672c-0.4558563,0-0.870779,0.1902618-1.1832256,0.500103
			c-0.3124962-0.3098412-0.7273655-0.500103-1.1832752-0.500103c-0.8093472,0-1.511095,0.6034164-1.715992,1.4677124
			c-0.0511856,0.2228813-0.0511856,0.4783401-0.0511856,0.7012215v3.2235336c0,0.342453,0.2612057,0.6197128,0.5838985,0.6197128
			c0.3227444,0,0.5839539-0.2772598,0.5839539-0.6197128v-3.2289696c0-0.1304474,0-0.3261452,0.0204945-0.4022675
			c0.0717335-0.3098297,0.3124447-0.5272789,0.5788307-0.5272789c0.327816,0,0.5942001,0.3098831,0.5942001,0.6958389v3.4572372
			c0,0.3424568,0.2612076,0.6197166,0.5839539,0.6197166c0.3226929,0,0.5839005-0.2772598,0.5839005-0.6197166v-3.4572372
			c0-0.3859558,0.2663841-0.6958389,0.5993233-0.6958389c0.2663841,0,0.5070953,0.2174492,0.5788307,0.5272789
			c0.0204964,0.0761261,0.0204964,0.2718201,0.0153732,0.4022675v3.2289696c0,0.342453,0.2612572,0.6197128,0.58395,0.6197128
			c0.3226967,0,0.5839539-0.2772598,0.5839539-0.6197128v-3.2235336c0-0.2228813,0-0.4783401-0.0512352-0.7012215
			C34.0576591,40.6269798,33.3559113,40.0235672,32.5465622,40.0235672z"/>
		<path d="M45.5471344,44.1059685c0,1.0654297,0.9373894,1.9352188,2.08992,1.9352188
			c1.1320419,0,2.0694275-0.8643494,2.0898705-1.9243431c0.0102501-0.7120972,0.0102501-1.3970642,0-2.1689224
			c-0.015316-1.0981064-0.916893-1.9243507-2.0898705-1.9243507c-1.0398102,0-1.7006187,0.6088486-1.8747749,0.7991104
			c-0.2305183,0.2445793-0.2305183,0.6359749,0,0.8751678c0.2305183,0.2446365,0.5993233,0.2446365,0.8298378,0
			c0.066555-0.0706863,0.4404869-0.4348907,1.0500603-0.4348907c0.4609833,0,0.8246651,0.2391968,0.9015198,0.5762138
			c-0.3022499,0.1630707-0.8349648,0.2990112-1.1217918,0.3696442
			C46.9557991,42.3230019,45.5471306,42.6817703,45.5471344,44.1059685z M48.5693245,43.1655502
			c0.0051231,0.3152657,0.0102463,0.6251488-0.0102501,0.9349823c-0.0204926,0.3424568-0.3790512,0.7066612-0.9220161,0.7066612
			c-0.4968491,0-0.9220123-0.3152695-0.9220123-0.6957855c0-0.1576347,0-0.4457703,0.9732552-0.6903496
			C48.0007477,43.3394966,48.297821,43.2579842,48.5693245,43.1655502z"/>
		<path d="M39.6463814,41.958744c0-1.0654297-0.9373894-1.935173-2.08992-1.935173
			c-1.1320419,0-2.0694275,0.8643036-2.0899239,1.9243507c-0.0102463,0.7120972-0.0102463,1.3970108,0,2.1689224
			c0.0153694,1.0980568,0.916893,1.9243393,2.0899239,1.9243393c1.0398102,0,1.7006187-0.6088371,1.8747749-0.799099
			c0.2305183-0.2446327,0.2305183-0.6360245,0-0.8751717c-0.2305183-0.2446327-0.5993233-0.2446327-0.8247185,0
			c-0.066555,0.0706367-0.4404869,0.4348412-1.0449333,0.4348412c-0.4610367,0-0.8247185-0.2391434-0.9066467-0.5762138
			c0.3021965-0.1630707,0.8349152-0.2989578,1.1217918-0.3696442C38.237709,43.7417603,39.6463814,43.3884315,39.6463814,41.958744z
			 M36.6293182,42.9046021c-0.0051231-0.3152695-0.0102463-0.6250992,0.0102463-0.9349823
			c0.0204964-0.3370209,0.379055-0.7066612,0.92202-0.7066612c0.4968452,0,0.9220161,0.3153191,0.9220161,0.6957855
			c0,0.1576881,0,0.4457703-0.9732552,0.690403C37.1927757,42.7306557,36.9007721,42.8067818,36.6293182,42.9046021z"/>
	</g>
</g>
</svg>
