<?xml version="1.0" encoding="utf-8"?>
<!-- Generator: Adobe Illustrator 25.0.0, SVG Export Plug-In . SVG Version: 6.00 Build 0)  -->
<svg version="1.2" baseProfile="tiny" xmlns="http://www.w3.org/2000/svg" xmlns:xlink="http://www.w3.org/1999/xlink" x="0px"
	 y="0px" viewBox="0 0 60 85" overflow="visible" xml:space="preserve">
<g id="фоны">
	
		<linearGradient id="yelp__x2F__digg_1_" gradientUnits="userSpaceOnUse" x1="4.1266537" y1="23.3201141" x2="52.3272133" y2="59.0511398">
		<stop  offset="0" style="stop-color:#FFFFFF"/>
		<stop  offset="1" style="stop-color:#D1D1D1"/>
	</linearGradient>
	<rect id="yelp__x2F__digg" fill-rule="evenodd" fill="url(#yelp__x2F__digg_1_)" width="60" height="85"/>
</g>
<g id="лого">
	<path d="M9.7135248,49.4834633V36.363018c0-0.3056831,0.1528244-0.4585114,0.4585094-0.4585114h6.2075224v-4.5498295
		c0-0.3291759,0.1528244-0.4937801,0.4585094-0.4937801h3.456461v18.1287842c0,0.329174-0.1410789,0.493782-0.4232407,0.493782
		H9.7135248z M13.5579557,46.5560493h2.3630905c0.3056498,0,0.4585104-0.1646042,0.4585104-0.4937782v-7.2656212h-2.3630915
		c-0.305685,0-0.4585094,0.1646042-0.4585094,0.4937782V46.5560493z M21.4937077,49.4834633V36.363018
		c0-0.3056831,0.1528244-0.4585114,0.4585094-0.4585114h3.456461v13.0851746c0,0.329174-0.1410789,0.493782-0.4232388,0.493782
		H21.4937077z M21.4937077,33.7883072v-2.43363c0-0.3291759,0.1410809-0.4937801,0.4232407-0.4937801h3.4917297v2.4336319
		c0,0.329174-0.1410789,0.4937782-0.4232388,0.4937782H21.4937077z M26.7489395,49.4834633V36.363018
		c0-0.3056831,0.1528244-0.4585114,0.4585094-0.4585114h10.1577625v17.7760849c0,0.305687-0.1528587,0.4585114-0.4585075,0.4585114
		H26.7489395l0.0352688-2.4336319c0-0.329174,0.1410809-0.4937782,0.4232407-0.4937782h6.2075214v-1.7282295H26.7489395z
		 M30.6286411,46.5560493h2.3630886c0.2821617,0,0.4232407-0.1646042,0.4232407-0.4937782v-7.2656212h-2.3630905
		c-0.2821598,0-0.4232388,0.1646042-0.4232388,0.4937782V46.5560493z M38.705471,51.705471
		c0-0.329174,0.1528282-0.4937782,0.4585114-0.4937782h6.2075233v-1.7282295H38.705471V36.363018
		c0-0.3056831,0.1528282-0.4585114,0.4585114-0.4585114h10.1224937v17.7760849c0,0.305687-0.1410789,0.4585114-0.4232407,0.4585114
		H38.705471V51.705471z M42.5499039,46.5560493h2.3630905c0.3056488,0,0.4585114-0.1646042,0.4585114-0.4937782v-7.2656212
		h-2.3630905c-0.305687,0-0.4585114,0.1646042-0.4585114,0.4937782V46.5560493z"/>
</g>
</svg>
