<?xml version="1.0" encoding="utf-8"?>
<!-- Generator: Adobe Illustrator 25.0.0, SVG Export Plug-In . SVG Version: 6.00 Build 0)  -->
<svg version="1.2" baseProfile="tiny" xmlns="http://www.w3.org/2000/svg" xmlns:xlink="http://www.w3.org/1999/xlink" x="0px"
	 y="0px" viewBox="0 0 60 85" overflow="visible" xml:space="preserve">
<g id="фоны">
	<rect id="kwai_1_" fill="#FF7705" width="60" height="85"/>
</g>
<g id="лого">
	<g id="kwai">
		<path fill-rule="evenodd" fill="#FFFFFF" d="M23.3504848,56.0210915c-0.4662151,0-1.5734806-0.2331009-2.6807423-0.5244865
			c-1.1072636-0.2913857-1.8648643-0.6993217-1.8648643-0.6993217c-0.4079399-0.2331047-0.5827694-0.5827713-0.6410484-0.9324379
			c0,0-0.1165543-1.1655388-0.1165543-3.3800659c0-1.6900291,0.0582771-2.622467,0.1165543-2.8555717
			c0.058279-0.2913818,0.1748314-0.5244865,0.5827713-0.5244865s0.874155,0,2.097971,0.2331047
			c1.4569263,0.2913818,2.15625,0.5244865,2.5059128,0.6410484c0.2913837,0.1165543,0.6410465,0.3496666,0.6993237,0.815876
			c0,0,0.1748314,1.2238197,0.1748314,3.0886803c0,1.5152054-0.1165543,3.0304031-0.1748314,3.4966202
			c-0.0582771,0.4079399-0.2331066,0.6410522-0.6993237,0.6410522V56.0210915z M29.9357853,50.776165
			c0-0.2913857-0.1165543-0.5244904-0.2913857-0.6993256l-3.7880039-3.7297211
			c-0.4079399-0.4662209-0.9324322-0.7576027-1.5734806-0.874157c0,0-1.3986473-0.3496666-3.5548973-0.6993217
			c-2.097971-0.3496666-2.6807423-0.2913857-2.6807423-0.2913857c-1.8648624,0-1.9231396,1.9814148-1.9814167,2.2145271
			c-0.0582771,0.4662209-0.1748314,1.7483101-0.1748314,3.5549011c0,2.0979767,0.1165543,3.5549011,0.1748314,4.4873276
			c0.1748314,1.340374,1.2238159,1.9814148,1.690033,2.2728004c0.1165543,0.0582809,1.4569244,0.6410484,2.7390194,1.0489883
			c0.874155,0.2913818,2.3310795,0.6993217,2.972126,0.7576027c0.2331085,0.0582809,1.5152035,0.2331047,2.15625-0.5827713
			l4.0211124-5.1866493c0.1748314-0.2331047,0.2331085-0.3496666,0.2331085-0.6993217l0.0582771-1.5734787V50.776165z
			 M38.7356148,43.2001534c-0.5827713-0.0582809-1.1655426-0.0582809-1.6900368-0.0582809l-9.0329342,0.874157
			c0,0-0.5827694,0.1165504-0.9324303,0.5244865c-0.2913857,0.3496666-0.2913857,0.6410522-0.2913857,0.6410522l0.2331085,0.2331047
			l3.5548973,3.6131706c0.407938,0.4079399,0.6410446,0.7576027,0.6410446,1.340374v2.0396957
			c0,0.3496628-0.0582752,0.6993217-0.2331085,0.9324341l-1.9231396,2.622467l1.9231396,0.7576027
			c0.7576008,0.2331047,1.3986492,0.2331047,2.1562481,0.1165504l8.2753372-1.9231415c0,0,1.5152016-0.4079399,1.5152016-1.806591
			v-5.0700989c0-0.1165504-0.0582771-0.1748314-0.1748314-0.1748314l-5.3032074,1.0489883
			c-0.1748314,0.0582809-0.3496628,0.2331047-0.3496628,0.4079361v2.4476318c0,0.1748352,0.1748314,0.2913857,0.3496628,0.2331047
			l1.6317558-0.3496666c0.0582733,0,0.1748276,0.0582809,0.1748276,0.1748352v0.8158722
			c0,0.1748352-0.1165543,0.2913857-0.2913857,0.2913857l-1.8648643,0.4079361c0,0-1.282093,0.3496666-1.282093-1.0489845
			v-3.1469574c0-1.3403702,0.9907112-1.5152054,0.9907112-1.5152054l5.8276978-1.1072578
			c0.1748314,0,0.2913857-0.1748314,0.2913857-0.2913857v-1.282093c0-1.3986435-1.3403702-1.5152054-1.3403702-1.5152054
			l-2.8555756-0.2331047L38.7356148,43.2001534z M27.8960915,29.9712772c2.15625,0.1165524,3.7880058,2.1562481,3.6714516,4.6621609
			s-1.9814186,4.4873238-4.0793896,4.4290543c-2.15625-0.1165543-3.7297287-2.1562462-3.6131744-4.662159
			C23.9915333,31.8361473,25.7981186,29.8547249,27.8960915,29.9712772z M36.6376419,35.7989769
			c0.1165543-1.6900291,1.282093-3.0304031,2.7390213-2.9721298c1.3403702,0.0582809,2.4476318,1.5152054,2.3893547,3.1469536
			c-0.1165543,1.6900291-1.3403702,3.0304031-2.7390213,2.9721298
			C37.6283493,38.8876495,36.5793648,37.489006,36.6376419,35.7989769z M43.9222679,36.0320816
			c0-3.3800697-2.5059128-6.0608044-5.594593-6.0608044c-1.8065834,0-3.438343,0.9324341-4.4873276,2.3893604
			C33.0244675,28.7474651,30.0523415,26.125,26.439167,26.125c-4.3124981,0-7.7508411,3.7297249-7.692564,8.2753334
			c0,4.603878,3.4966202,8.3918839,7.692564,8.3336105c0.2331085,0,11.946785-0.8158722,11.8885078-0.8158722
			c3.3217888-0.2913857,5.594593-2.5641861,5.594593-5.8859825V36.0320816z"/>
	</g>
</g>
</svg>
