<?xml version="1.0" encoding="utf-8"?>
<!-- Generator: Adobe Illustrator 25.0.0, SVG Export Plug-In . SVG Version: 6.00 Build 0)  -->
<svg version="1.0" xmlns="http://www.w3.org/2000/svg" xmlns:xlink="http://www.w3.org/1999/xlink" x="0px" y="0px"
	 viewBox="0 0 60 85" enable-background="new 0 0 60 85" xml:space="preserve">
<g id="фоны">
	<rect id="line" fill="#3ACE01" width="60" height="85"/>
</g>
<g id="лого">
	<g id="line_1_">
		<path fill-rule="evenodd" clip-rule="evenodd" fill="#FFFFFF" d="M29.8124409,27.0823154
			c9.0978336,0,16.4730473,5.905756,16.4730473,13.1908665c0,2.5446587-0.9004784,4.9205322-2.4593163,6.9355507
			c-0.0771408,0.1147003-0.1779327,0.2414055-0.3049965,0.3814201l-0.0096245,0.0104599
			c-0.5324898,0.637085-1.1321335,1.2351837-1.7914467,1.7872849c-4.5553932,4.2105827-12.0535049,9.2235909-13.0431252,8.4501724
			c-0.860302-0.6722679,1.4169216-3.9605064-1.2103424-4.5077324c-0.1832809-0.0210381-0.366087-0.0436211-0.5473461-0.0692978
			l-0.0034466-0.0002365v-0.0002403c-7.7164555-1.0962372-13.5763302-6.4937515-13.5763302-12.987381
			c-0.0002375-7.2851181,7.3750916-13.1908703,16.4729271-13.1908703V27.0823154z"/>
		<path fill-rule="evenodd" clip-rule="evenodd" fill="#3ACE01" d="M20.2547379,44.4806786h3.3223515
			c0.4725838,0,0.8591118-0.3866501,0.8591118-0.8592339v-0.0716705c0-0.4725838-0.386528-0.8591156-0.8591118-0.8591156H21.185524
			v-5.4412537c0-0.4725838-0.3865299-0.8591118-0.8591137-0.8591118h-0.0716724
			c-0.4725838,0-0.8591137,0.386528-0.8591137,0.8591118v6.3719215
			C19.3956242,44.0940323,19.7821541,44.4806786,20.2547379,44.4806786z M40.8417358,40.4866562v-0.0716743
			c0-0.4725838-0.3866501-0.8591118-0.8592339-0.8591118h-2.3914452v-1.3603401h2.3914452
			c0.4725838,0,0.8592339-0.3865318,0.8592339-0.8591156v-0.0716705c0-0.4725838-0.3866501-0.8591156-0.8592339-0.8591156
			h-3.3223495c-0.4725838,0-0.8591156,0.3865318-0.8591156,0.8591156v6.3719215c0,0.4725838,0.3865318,0.85923,0.8591156,0.85923
			h3.3223495c0.4725838,0,0.8592339-0.3866463,0.8592339-0.85923V43.564991c0-0.4725838-0.3866501-0.8591118-0.8592339-0.8591118
			h-2.3914452v-1.3603439h2.3914452c0.4725838,0.0002365,0.8592339-0.3864136,0.8592339-0.8588753V40.4866562z
			 M34.4524612,44.2245369l0.0002365-0.0003548c0.1589813-0.1602936,0.2482529-0.3768578,0.2484169-0.6026192v-6.3719215
			c0-0.4725838-0.3865318-0.8591118-0.8592339-0.8591118h-0.0716705c-0.4725838,0-0.8591156,0.386528-0.8591156,0.8591118v3.7403793
			l-3.1053123-4.165062c-0.1483364-0.2589951-0.4276562-0.4344292-0.7459602-0.4344292h-0.0716724
			c-0.4725838,0-0.8592319,0.386528-0.8592319,0.8591118v6.3719215c0,0.4725838,0.3865299,0.8592339,0.8592319,0.8592339h0.0716724
			c0.4725838,0,0.8591137-0.3866501,0.8591137-0.8592339v-3.8103867l3.1276608,4.2719154
			c0.0192528,0.029953,0.0402908,0.0587196,0.0629921,0.0860558l0.0001221,0.0002365
			c0.0859337,0.1171951,0.2034874,0.1975441,0.3344688,0.2466316c0.1006737,0.0416031,0.2107353,0.0646629,0.3259125,0.0646629
			h0.0716705c0.1400108,0.0000763,0.2778778-0.0343781,0.4013863-0.1003189
			C34.3290863,44.3394737,34.4014702,44.2867012,34.4524612,44.2245369L34.4524612,44.2245369z M25.9887371,44.4806786h0.0716724
			c0.4725838,0,0.8591137-0.3866501,0.8591137-0.8592339V37.249527c0-0.4725838-0.3865299-0.8591156-0.8591137-0.8591156h-0.0716724
			c-0.4725838,0-0.8592319,0.3865318-0.8592319,0.8591156v6.3719215c0,0.4725838,0.3866482,0.8592339,0.8592319,0.8592339
			V44.4806786z"/>
	</g>
</g>
</svg>
