<?xml version="1.0" encoding="utf-8"?>
<!-- Generator: Adobe Illustrator 25.0.0, SVG Export Plug-In . SVG Version: 6.00 Build 0)  -->
<svg version="1.2" baseProfile="tiny" xmlns="http://www.w3.org/2000/svg" xmlns:xlink="http://www.w3.org/1999/xlink" x="0px"
	 y="0px" viewBox="0 0 60 85" overflow="visible" xml:space="preserve">
<g id="фоны">
	<rect id="Google__x2F__Ameba" fill="#FFFFFF" width="60" height="85"/>
</g>
<g id="лого">
	<path d="M28.0257988,39.7884178v-2.2520714l-2.1186543,0.274601v1.9774704h-0.8245029v1.863472h0.8245029v5.0787392h2.1186543
		v-5.0787392h1.5359974v-1.863472H28.0257988z M16.4468212,43.1309357c0.6453857-0.5206299,1.0595779-1.2329216,1.0595779-2.1270218
		v-0.3889008c0-1.5700493-1.2726479-2.7236176-2.8419008-2.7236176l-4.4879169-0.0174217l0.0026875,8.8099594l2.119751,0.0167236
		v-2.9902496h2.1787939l1.4203024,2.9902496h2.4808741L16.4468212,43.1309357z M15.3403502,40.8970833
		c0,0.6251717-0.5069876,0.9800224-1.1321602,0.9800224h-1.90907v-2.1156693h1.90907
		c0.6251717,0,1.1321602,0.4391823,1.1321602,1.0645561V40.8970833z M40.2609138,39.7515793h-1.1217041V37.5014
		l-2.0726547,0.2745018l-0.0004997,8.9247551h3.1948624c1.5699501,0,2.8420982-1.2051392,2.8420982-2.7744904v-1.332489
		c0-1.5695496-1.2721481-2.8420982-2.8420982-2.8420982H40.2609138z M41.0720749,43.7478409
		c0,0.6610184-0.4460564,1.0532074-1.1067696,1.0532074H39.14608v-3.1484642h0.8192253
		c0.6607132,0,1.1067696,0.3925896,1.1067696,1.0535049V43.7478409z M34.0924263,39.7884178v4.0091095
		c0,0.660717-0.2402496,1.1073685-0.9013634,1.1073685h-0.0327568c-0.6605186,0-0.9014664-0.4466515-0.9014664-1.1073685v-4.0091095
		h-2.091177v4.1621399c0,1.5697517,0.6870003,2.8424988,2.7746906,2.8424988h0.4010506
		c2.1988068,0,2.8426971-1.272747,2.8426971-2.8424988v-4.1621399H34.0924263z M22.3056583,39.7884178v4.0091095
		c0,0.660717-0.240551,1.1073685-0.9014664,1.1073685h-0.0327587c-0.6605167,0-0.9012661-0.4466515-0.9012661-1.1073685v-4.0091095
		h-2.091177v4.1621399c0,1.5697517,0.6866055,2.8424988,2.7742958,2.8424988h0.4013481
		c2.198307,0,2.8423977-1.272747,2.8423977-2.8424988v-4.1621399H22.3056583z M48.4078636,44.3732147
		c0,0-0.6118279,0.7497292-1.6874352,0.6656952c-0.6701775-0.0521736-1.0675468-0.3926888-1.0675468-1.0534058v-0.2302933h4.1024017
		v-1.1897087c0-1.5308228-1.1217041-2.873661-3.0296822-2.873661c-1.9073792,0-3.0317726,1.2753334-3.0317726,2.8062553v1.431057
		c0,1.5318146,1.1220055,2.8745575,3.0296822,2.8745575c2.156292,0,3.0780716-1.5038414,3.0780716-1.5038414L48.4078636,44.3732147z
		 M45.6528816,42.1737099c0-0.6451836,0.4113083-1.0335884,1.0235367-1.0515099h0.0528679
		c0.6372185,0,1.0674438,0.3924866,1.0674438,1.0531044v0.0583458h-2.1438484V42.1737099z"/>
</g>
</svg>
