<?xml version="1.0" encoding="utf-8"?>
<!-- Generator: Adobe Illustrator 25.0.0, SVG Export Plug-In . SVG Version: 6.00 Build 0)  -->
<svg version="1.2" baseProfile="tiny" xmlns="http://www.w3.org/2000/svg" xmlns:xlink="http://www.w3.org/1999/xlink" x="0px"
	 y="0px" viewBox="0 0 60 85" overflow="visible" xml:space="preserve">
<g id="фоны">
	<rect id="TenChat_1_" fill="#F3F5F9" width="60" height="85"/>
</g>
<g id="лого">
	<g id="TenChat">
		<path fill="#EB575D" d="M18.5255318,27.6299801c7.5182915-2.0066395,15.430584-2.0066395,22.9488602,0
			c2.5238609,0.6734581,4.4515076,2.7415066,4.9524689,5.3131771c0.8877029,4.557373,0.8877029,9.2447662,0,13.8022385
			c-0.5008812,2.5716133-2.4285278,4.6396446-4.9524689,5.3137817c-0.1905899,0.0509377-0.381588,0.1005669-0.5729179,0.1488914
			c-0.3783951,0.095417-0.6456795,0.4396362-0.6456795,0.8315277v5.4477921c0,0.1331902-0.0775108,0.2546921-0.1979485,0.3108635
			c-0.1204376,0.0562515-0.263031,0.0372849-0.364418-0.0489769l-5.5369949-4.6913185
			c-0.4667015-0.3951607-1.0670052-0.5970345-1.676796-0.5630188c-4.6976948,0.2625389-9.4073277-0.2221527-13.9541054-1.4357605
			c-2.5239277-0.6741371-4.4514999-2.7421684-4.9524069-5.3137817c-0.887682-4.5574722-0.887682-9.2448654,0-13.8022385
			C14.0741625,30.3714867,16.0017357,28.3034382,18.5255318,27.6299801z M33.0768356,46.7041893
			c0.1875648,0,0.3418503-0.1547775,0.3418503-0.3429146v-6.5170059h6.4952583c0.1874847,0,0.3418503-0.1548615,0.3418503-0.3429146
			v-6.1741257c0-0.188118-0.1543655-0.3429298-0.3418503-0.3429298H20.0864449
			c-0.1875648,0-0.3418598,0.1548119-0.3418598,0.3429298v6.1741257c0,0.1880531,0.154295,0.3429146,0.3418598,0.3429146h6.4952164
			v6.5170059c0,0.1881371,0.1542854,0.3429146,0.3417683,0.3429146H33.0768356z"/>
		<rect x="19.3845329" y="29.2518005" fill="#DA3545" width="21.2907715" height="21.2907715"/>
		<path fill-rule="evenodd" fill="#FFFFFF" d="M37.8998718,32.9545555c0-0.5112419-0.4144554-0.9256897-0.9257202-0.9256897
			H23.0889072c-0.5112648,0-0.9257221,0.4144478-0.9257221,0.9256897v3.2398911c0,0.5112648,0.4144573,0.925724,0.9257221,0.925724
			h3.2428856c0.5111828,0,0.9256401,0.4143715,0.9256401,0.9256363v8.7922287c0,0.5111809,0.4144554,0.9256363,0.9257202,0.9256363
			h3.7027206c0.5112667,0,0.925642-0.4144554,0.925642-0.9256363l0.0000801-8.7922287
			c0-0.5112648,0.4143753-0.9256363,0.9256401-0.9256363h3.2369156c0.5112648,0,0.9257202-0.4144592,0.9257202-0.925724V32.9545555z
			"/>
		<path fill="#DA3545" d="M18.4282818,27.6039314c7.3881588-1.9719067,15.163496-1.9719067,22.5516872,0
			c2.4801216,0.6617985,4.3743248,2.6940517,4.866703,5.221199c0.8723259,4.4785156,0.8723259,9.0848007,0,13.5632896
			c-0.4922142,2.5271301-2.3865013,4.559433-4.866703,5.2218781c-0.1873169,0.0500374-0.3750458,0.0988503-0.5630188,0.1463547
			c-0.3718605,0.0937004-0.6345634,0.4319572-0.6345634,0.8170586v5.3534355c0,0.1309853-0.0761223,0.2503586-0.1945152,0.3055496
			c-0.118309,0.0552711-0.2584534,0.0366287-0.35812-0.0480766l-5.4411697-4.6101303
			c-0.4585266-0.3883743-1.0484467-0.586731-1.6477699-0.5533714c-4.6163425,0.2580452-9.2444572-0.2182236-13.7125301-1.41082
			c-2.4802322-0.6624451-4.374445-2.6947479-4.8666801-5.2218781c-0.8723173-4.4784889-0.8723173-9.084774,0-13.5632896
			C14.0539589,30.2979832,15.9481716,28.2657299,18.4282818,27.6039314z M32.7277069,46.3480263
			c0.1842957,0,0.3359642-0.1521606,0.3359642-0.3370247v-6.4042549h6.3827515c0.1842918,0,0.3359642-0.1520805,0.3359642-0.3369446
			v-6.0672379c0-0.184864-0.1516724-0.3370018-0.3359642-0.3370018H19.9621811
			c-0.1843185,0-0.3359394,0.1521378-0.3359394,0.3370018v6.0672379c0,0.184864,0.1516209,0.3369446,0.3359394,0.3369446h6.3827744
			v6.4042549c0,0.184864,0.1516724,0.3370247,0.3358841,0.3370247H32.7277069z"/>
		<path fill-rule="evenodd" fill="#FFFFFF" d="M37.8998718,32.952961c0-0.5112495-0.4144554-0.9256897-0.9257202-0.9256897
			H23.0889072c-0.5112648,0-0.9257221,0.4144402-0.9257221,0.9256783v3.2399445
			c0,0.5111809,0.4144573,0.9256401,0.9257221,0.9256401h3.2428856c0.5111828,0,0.9256401,0.4144554,0.9256401,0.9257202v8.7937813
			c0,0.5111809,0.4144554,0.9256363,0.9257202,0.9256363h3.7027206c0.5112667,0,0.925642-0.4144554,0.925642-0.9256363
			l0.0000801-8.7937813c0-0.5112648,0.4143753-0.9257202,0.9256401-0.9257202h3.2369156
			c0.5112648,0,0.9257202-0.4144592,0.9257202-0.9256401V32.952961z"/>
	</g>
</g>
</svg>
