<?xml version="1.0" encoding="utf-8"?>
<!-- Generator: Adobe Illustrator 25.0.0, SVG Export Plug-In . SVG Version: 6.00 Build 0)  -->
<svg version="1.1" id="Слой_1" xmlns="http://www.w3.org/2000/svg" xmlns:xlink="http://www.w3.org/1999/xlink" x="0px" y="0px"
	 viewBox="0 0 60 85" style="enable-background:new 0 0 60 85;" xml:space="preserve">
<style type="text/css">
	.st0{fill:#67C693;}
</style>
<g id="фоны">
	<rect id="Trovo_1_" class="st0" width="60" height="85"/>
</g>
<g id="лого">
	<path id="Trovo_2_" d="M24.9,26.1h11.6l-1.5,6.7h11.3l-2.6,9.8c0,0-12.6-2.3-12.6,5.4s6.5,5.5,6.5,5.5s3-1.4,1.8-4
		c-1.2-2.7-4-2-2.7,1.2c1.4,3.2-3.1-0.6-2.7-2.2c0.4-1.6,1.5-3.1,3.7-3.1c2.2,0,5.1,1.6,5.1,6.4s-7.8,7.1-10.5,7.1
		S21,56.1,20.5,50.7s0.3-7.9,0.3-7.9l-7.2-0.4l2.2-9.6h6.7L24.9,26.1"/>
</g>
</svg>
