<?xml version="1.0" encoding="utf-8"?>
<!-- Generator: Adobe Illustrator 25.0.0, SVG Export Plug-In . SVG Version: 6.00 Build 0)  -->
<svg version="1.0" xmlns="http://www.w3.org/2000/svg" xmlns:xlink="http://www.w3.org/1999/xlink" x="0px" y="0px"
	 viewBox="0 0 60 85" enable-background="new 0 0 60 85" xml:space="preserve">
<g id="фоны">
	<rect id="viber_1_" fill="#665CA7" width="60" height="85"/>
</g>
<g id="лого">
	<g id="viber">
		<path fill="#FFFFFF" d="M41.9547958,29.3278904c-0.8164978-0.7305489-4.0824776-3.1370621-11.4309368-3.1800346
			c0,0-8.637661-0.5156822-12.8490582,3.3519287c-2.3635387,2.3635387-3.1800337,5.75844-3.2659807,10.0128117
			S14.1939535,51.7170525,21.886198,53.908699v3.3089523c0,0-0.0429726,1.3321762,0.8164959,1.5900154
			c1.0743351,0.3437881,1.6759644-0.6875725,2.7073269-1.7619095c0.5586529-0.6016273,1.3321762-1.4610977,1.890831-2.1486702
			c5.2427578,0.4297333,9.2822628-0.5586586,9.7549686-0.7305489c1.074337-0.3437881,7.0476456-1.1173096,8.0360374-9.0673943
			C46.1232185,36.8482437,44.6621208,31.6484566,41.9547958,29.3278904z M42.857235,44.4545403
			c-0.816494,6.6608849-5.672493,7.0906181-6.5749359,7.3484573c-0.3867607,0.1289215-3.9105835,0.9883919-8.3798199,0.7305489
			c0,0-3.3089561,3.9965324-4.3832912,5.0708656c-0.1718941,0.1718941-0.3437881,0.2148705-0.4727077,0.2148705
			c-0.1718941-0.0429764-0.2148666-0.257843-0.2148666-0.5586586c0-0.4297333,0.0429726-5.5005989,0.0429726-5.5005989
			c-6.4889889-1.8048859-6.1022282-8.5946884-6.0592556-12.1614838c0.085947-3.5667953,0.7305489-6.4460144,2.7073269-8.4227943
			c3.5667953-3.2230072,10.9152527-2.7502995,10.9152527-2.7502995c6.1881771,0.0429726,9.1533413,1.890831,9.8409176,2.5354328
			C42.5134468,32.9376602,43.6737328,37.6217651,42.857235,44.4545403L42.857235,44.4545403z"/>
		<g>
			<path fill="none" stroke="#FFFFFF" stroke-linecap="round" stroke-linejoin="round" stroke-miterlimit="19.4402046" d="
				M33.5320015,39.3407021c-0.0859489-1.6329918-0.9024429-2.4924583-2.4924603-2.5784073 M35.6806717,40.0282745
				c0.0429726-1.5040703-0.4297333-2.7932739-1.3321762-3.781662c-0.9454155-1.0313606-2.2346191-1.5900154-3.867609-1.7189369"/>
			<path fill="none" stroke="#FFFFFF" stroke-linecap="round" stroke-linejoin="round" stroke-miterlimit="19.4402046" d="
				M37.8293457,40.8877449c0-2.6213799-0.8164978-4.6841049-2.3635406-6.1881752s-3.4808483-2.2775917-5.8014145-2.2775917"/>
		</g>
		<path fill="#FFFFFF" d="M31.1254864,44.8842773c0,0,0.6016293,0.0429726,0.902441-0.3437881l0.6016312-0.7735214
			c0.3008118-0.3867607,0.9883881-0.6446037,1.7189369-0.2578392c0.3867607,0.2148666,1.074337,0.6445999,1.5040703,0.9883881
			c0.4727058,0.3437881,1.4181213,1.1173096,1.4181213,1.1173096c0.4727097,0.3867607,0.5586548,0.9454155,0.257843,1.5470428
			c-0.3008156,0.5586548-0.7305489,1.0743332-1.2892036,1.5470428c-0.4297371,0.3867607-0.8594704,0.5586548-1.2892036,0.6445999
			h-0.1718941c-0.1718941,0-0.3867645-0.0429726-0.5586548-0.0859451c-0.6446037-0.1718941-1.7189369-0.6446037-3.5667953-1.6329918
			c-1.160284-0.6445999-2.1486721-1.3321762-2.965168-1.9767761c-0.4297333-0.3437881-0.902441-0.7305489-1.3321762-1.2032585
			l-0.1718941-0.1718941c-0.4727077-0.4727058-0.8594685-0.9024391-1.2032566-1.3321762
			c-0.6445999-0.816494-1.3321762-1.804882-1.976778-2.965168c-0.9883881-1.804882-1.4610958-2.8792191-1.6329899-3.5667953
			c-0.0429726-0.1718903-0.085947-0.3437843-0.085947-0.558651v-0.1718941
			c0.0429745-0.4297371,0.2578411-0.8594704,0.6446018-1.2892036c0.4727077-0.5156822,0.9883881-0.9454155,1.5470428-1.2892036
			c0.6016293-0.3008156,1.160284-0.2148666,1.5470448,0.2578392c0,0,0.7735214,0.9454155,1.1173096,1.4181252
			c0.3008137,0.4297333,0.7305489,1.1173096,0.9883881,1.5040703c0.3867607,0.6875763,0.1289215,1.4181213-0.2148666,1.7189369
			l-0.7735214,0.6016273c-0.3867607,0.3008156-0.3437862,0.9024429-0.3437862,0.9024429
			S26.8711166,43.7669678,31.1254864,44.8842773z"/>
	</g>
</g>
</svg>
