<?xml version="1.0" encoding="utf-8"?>
<!-- Generator: Adobe Illustrator 25.0.0, SVG Export Plug-In . SVG Version: 6.00 Build 0)  -->
<svg version="1.0" xmlns="http://www.w3.org/2000/svg" xmlns:xlink="http://www.w3.org/1999/xlink" x="0px" y="0px"
	 viewBox="0 0 60 85" enable-background="new 0 0 60 85" xml:space="preserve">
<g id="фоны">
	<rect id="wasd_1_" fill="#1D2736" width="60" height="85"/>
</g>
<g id="лого">
	<g id="wasd">
		
			<linearGradient id="SVGID_1_" gradientUnits="userSpaceOnUse" x1="9.9015465" y1="43.4999809" x2="49.6810951" y2="43.4999809" gradientTransform="matrix(1 0 0 -1 0 86)">
			<stop  offset="0" style="stop-color:#9013FE"/>
			<stop  offset="1" style="stop-color:#008FEC"/>
		</linearGradient>
		<path fill-rule="evenodd" clip-rule="evenodd" fill="url(#SVGID_1_)" d="M10,38.5019646
			c0-0.3667259,0.2971869-0.6637192,0.6635237-0.6637192h7.9962873c0.3667259,0,0.6636963,0.2969933,0.6636963,0.6637192v7.9960938
			c0,0.3667259-0.2969704,0.6636963-0.6636963,0.6636963h-7.9962873C10.2971869,47.1617546,10,46.8647842,10,46.4980583V38.5019646z
			 M30.2010345,38.5019646c0-0.3667259,0.2969704-0.6637192,0.6637344-0.6637192h7.9960785
			c0.3667259,0,0.6636925,0.2969933,0.6636925,0.6637192v7.9960938c0,0.3667259-0.2969666,0.6636963-0.6636925,0.6636963H30.864769
			c-0.3667641,0-0.6637344-0.2969704-0.6637344-0.6636963V38.5019646z M20.7642326,37.8382454
			c-0.3665314,0-0.6637344,0.2969933-0.6637344,0.6637192v7.9960938c0,0.3667259,0.2972031,0.6636963,0.6637344,0.6636963h7.9960766
			c0.3665314,0,0.6637344-0.2969704,0.6637344-0.6636963v-7.9960938c0-0.3667259-0.2972031-0.6637192-0.6637344-0.6637192
			H20.7642326z M40.3014183,38.5019646c0-0.3667259,0.2972031-0.6637192,0.6637306-0.6637192h7.9961967
			c0.3664894,0,0.6636543,0.2969933,0.6636543,0.6637192v7.9960938c0,0.3667259-0.2971649,0.6636963-0.6636543,0.6636963h-7.9961967
			c-0.3665276,0-0.6637306-0.2969704-0.6637306-0.6636963V38.5019646z"/>
		<path fill-rule="evenodd" clip-rule="evenodd" fill="#FFFFFF" d="M44.0724907,39.9610023l3.1210518,2.2982674
			c0.0740013,0.0543709,0.1177368,0.1405983,0.118515,0.2324753c0.000782,0.0918732-0.04179,0.1785316-0.1150055,0.2340698
			l-3.1212502,2.3708954c-0.0514488,0.0394135-0.1138039,0.059433-0.1761551,0.059433
			c-0.044281,0-0.0883713-0.0100899-0.1295776-0.0303001c-0.099041-0.0491524-0.1617851-0.1505318-0.1617851-0.2610626V42.038208
			c0-0.1608124,0.1305122-0.2913628,0.2913628-0.2913628c0.1608124,0,0.2913589,0.1305504,0.2913589,0.2913628v2.2394104
			l2.3432808-1.7800331l-2.8075256-2.0672951c-0.1295395-0.0953751-0.1571503-0.2779617-0.0617676-0.4075165
			C43.7603722,39.8930206,43.9433441,39.8658295,44.0724907,39.9610023z M34.0977516,41.3278313
			c0,0.2511482,0.109951,0.5322304,0.9070778,0.8849754c0.6243172,0.2763672,1.2903519,0.6376762,1.2903519,1.4319229
			c0,0.7977486-0.706852,1.2748108-1.3901749,1.2748108c-0.812706,0-1.6327705-0.4656105-1.6327705-1.5053787
			c0-0.1610451,0.1303139-0.2913628,0.2913628-0.2913628c0.1610031,0,0.2913589,0.1303177,0.2913589,0.2913628
			c0,0.8560143,0.8037491,0.9226532,1.0500488,0.9226532c0.3968315,0,0.8074493-0.2589188,0.8074493-0.6920853
			c0-0.30476-0.1544228-0.5496979-0.9436073-0.8989334c-0.5836983-0.2585335-1.2538185-0.6530647-1.2538185-1.4179649
			c0-0.5687408,0.4626884-1.1734047,1.3202209-1.1734047c0.8641968,0,1.3991318,0.6961555,1.3991318,1.3412247
			c0,0.1608315-0.1305122,0.2913475-0.2913628,0.2913475c-0.1608086,0-0.2913628-0.1305161-0.2913628-0.2913475
			c0-0.3059273-0.2595024-0.7585068-0.8164062-0.7585068C34.2519836,40.7371445,34.0977516,41.1236801,34.0977516,41.3278313z
			 M24.7620564,40.0967407c0.118906,0,0.2257366,0.0720634,0.2702141,0.1821976l1.6883106,4.1821976
			c0.0602112,0.1493607-0.0118408,0.3191299-0.1610069,0.3791466c-0.0357533,0.0145683-0.0726357,0.0213432-0.1089745,0.0213432
			c-0.1153603,0-0.2245274-0.0689354-0.2703686-0.1823883l-0.2882462-0.7138214h-1.1299286
			c-0.1804409,0-0.3266869-0.146244-0.3266869-0.326725c0-0.180439,0.146246-0.3266869,0.3266869-0.3266869h0.8661404
			l-0.8661404-2.1457748l-1.4181366,3.5130081c-0.0602112,0.1492043-0.2299805,0.2210617-0.3793411,0.1610451
			c-0.149168-0.0600166-0.2214527-0.2297859-0.1612415-0.3791466l1.6885452-4.1821976
			C24.5363598,40.1688042,24.6431904,40.0967407,24.7620564,40.0967407z M14.762042,41.5298996
			c-0.1495562-0.0605621-0.3199492,0.011879-0.3803177,0.1612396l-0.8282137,2.0495949l-1.1954765-3.2836304
			c-0.0553045-0.1515007-0.222971-0.2297859-0.3744745-0.1742859c-0.1515036,0.0551109-0.2295923,0.22258-0.1744823,0.3744736
			l1.4558363,3.9981117c0.0412836,0.1135292,0.1483879,0.1898651,0.2693186,0.1920052h0.0050631
			c0.1189823,0,0.2260866-0.0720482,0.2708759-0.1824646l1.113306-2.7547188
			C14.9838448,41.7606697,14.9115982,41.5904617,14.762042,41.5298996z M16.9470806,40.4572334
			c0.0555-0.1515045,0.2231674-0.2293968,0.3744755-0.1744804c0.1515045,0.0551071,0.2297878,0.2227745,0.1744823,0.3744736
			l-1.4556408,3.9980965c-0.0414791,0.1135292-0.1485834,0.1900635-0.2693186,0.192009h-0.0052576
			c-0.1187887,0-0.2260876-0.072052-0.2706814-0.1824684l-0.4981318-1.2322807
			c-0.0605621-0.1497498,0.011879-0.3199463,0.1614351-0.3803139c0.1491671-0.0605621,0.3195601,0.0114899,0.3801222,0.1612396
			l0.2130404,0.5271454L16.9470806,40.4572334z"/>
	</g>
</g>
</svg>
