<?xml version="1.0" encoding="utf-8"?>
<!-- Generator: Adobe Illustrator 25.0.0, SVG Export Plug-In . SVG Version: 6.00 Build 0)  -->
<svg version="1.0" xmlns="http://www.w3.org/2000/svg" xmlns:xlink="http://www.w3.org/1999/xlink" x="0px" y="0px"
	 viewBox="0 0 60 85" enable-background="new 0 0 60 85" xml:space="preserve">
<g id="фоны">
	<rect id="wechat_2_" fill="#2DBA03" width="60" height="85"/>
</g>
<g id="лого">
	<g id="wechat">
		<path fill="#FFFFFF" d="M46.5171127,46.4656334c0-4.5647354-4.4148979-8.2882881-9.8510475-8.2882881
			s-9.8208218,3.7235527-9.8208218,8.2882881s4.4148998,8.2882881,9.8510494,8.2882881
			c1.0514793,0,2.0424995-0.119606,2.9730606-0.3903618c0.2707558-0.0604591,0.5704269-0.0302277,0.8411827,0.0906906
			l2.4328613,1.3209229c0.1498375,0.0906906,0.3601303-0.0604591,0.299675-0.2405281l-0.4810562-1.9518089
			c-0.0604591-0.2996712,0.0302315-0.6006546,0.299675-0.7807236C45.165966,51.2708969,46.5171127,49.0181007,46.5171127,46.4656334
			z M33.1528053,45.3852386c-0.7504921,0-1.3511505-0.6006584-1.3511505-1.3511505
			c0-0.7504959,0.6006584-1.3511543,1.3511505-1.3511543c0.7504959,0,1.3511543,0.6006584,1.3511543,1.3511543
			C34.5039597,44.7845802,33.9033012,45.3852386,33.1528053,45.3852386z M39.7902718,45.3852386
			c-0.7504921,0-1.3511505-0.6006584-1.3511505-1.3511505c0-0.7504959,0.6006546-1.3511543,1.3511505-1.3511543
			s1.3511505,0.6006584,1.3511505,1.3511543C41.1414223,44.7845802,40.5105362,45.3852386,39.7902718,45.3852386z"/>
		<path fill="#FFFFFF" d="M26.0356045,46.4958649c0-5.074707,4.8052616-9.1899338,10.751379-9.1899338h0.4508247
			c-0.9621048-4.5949669-5.8265114-8.1082249-11.6832561-8.1082249c-6.5770054,0-11.8922348,4.3846722-11.8922348,9.8208218
			c0,3.0032883,1.6521378,5.7055893,4.2348347,7.5075645c0.1800671,0.119606,0.2405262,0.3299026,0.2102966,0.5401955
			l-0.9003296,3.1833572c-0.060461,0.2102928,0.1800652,0.4205894,0.3903618,0.2996712l3.5132561-2.1016464
			c0.2405262-0.1498337,0.5099678-0.1800652,0.7807236-0.0906906c1.1710854,0.299675,2.4026318,0.4810524,3.6644077,0.4810524
			c0.2707558,0,0.5401974,0,0.8411827-0.0302315c-0.2418404-0.7504921-0.3614464-1.5312157-0.3614464-2.3119392V46.4958649z
			 M29.5488605,34.3933334c0.8714142,0,1.5916767,0.7202606,1.5916767,1.5916748s-0.7202644,1.5916786-1.5916767,1.5916786
			s-1.5916767-0.7202644-1.5916767-1.5916786s0.7215767-1.5916786,1.5916767-1.5916786V34.3933334z M21.5602436,37.5766869
			c-0.8714142,0-1.5916786-0.7202644-1.5916786-1.5916786c0-0.8714104,0.7202644-1.5916748,1.5916786-1.5916748
			s1.5916767,0.7202606,1.5916767,1.5916748S22.4618874,37.5766869,21.5602436,37.5766869z"/>
	</g>
</g>
</svg>
