<?xml version="1.0" encoding="utf-8"?>
<!-- Generator: Adobe Illustrator 25.0.0, SVG Export Plug-In . SVG Version: 6.00 Build 0)  -->
<svg version="1.2" baseProfile="tiny" xmlns="http://www.w3.org/2000/svg" xmlns:xlink="http://www.w3.org/1999/xlink" x="0px"
	 y="0px" viewBox="0 0 60 85" overflow="visible" xml:space="preserve">
<g id="фоны">
	<rect id="Google__x2F__Ameba" fill="#FFFFFF" width="60" height="85"/>
</g>
<g id="лого">
	<g id="weibo_full">
		<path fill="#FFFFFF" d="M11.1673479,44.0346298c0,1.7285271,2.2503653,3.1302223,5.0269079,3.1302223
			s5.0269089-1.4018898,5.0269089-3.1302223s-2.2505627-3.1300278-5.0269089-3.1300278S11.1673479,42.3060989,11.1673479,44.0346298
			"/>
		<path fill="#E6162D" d="M16.3112946,46.9098549c-2.4572048,0.2423668-4.5782967-0.8680153-4.738163-2.4814835
			c-0.1594715-1.6130676,1.7038603-3.1173935,4.1606693-3.3603477c2.4574032-0.2431564,4.5786896,0.8676186,4.738163,2.4802933
			C20.631237,45.1619835,18.7686958,46.6666985,16.3112946,46.9098549 M21.2262955,41.5543327
			c-0.2090092-0.0623703-0.3522968-0.1051979-0.2429562-0.379734c0.2370358-0.5964394,0.2615089-1.110775,0.0045395-1.4778748
			c-0.4817715-0.6882133-1.8001747-0.6513062-3.3114052-0.0183563c0-0.0009842-0.4744663,0.2076302-0.3532848-0.1687469
			c0.2324982-0.7474251,0.1973667-1.3732719-0.1644058-1.7346497c-0.8196602-0.8204498-2.9999609,0.0309868-4.8698053,1.9000435
			c-1.4001131,1.4003105-2.2130632,2.884304-2.2130632,4.1675758c0,2.4546394,3.147788,3.9469223,6.2272873,3.9469223
			c4.0367241,0,6.722084-2.3454933,6.722084-4.2074432C23.0252857,42.4568863,22.0777321,41.8184052,21.2262955,41.5543327"/>
		<path fill="#FF9933" d="M23.9069195,37.0624809c-0.9747906-1.0807762-2.4127979-1.4926758-3.7400837-1.21064H20.166441
			c-0.3069496,0.0655632-0.5026321,0.3675461-0.437067,0.6744957s0.367548,0.5026321,0.6744976,0.4370689
			c0.9441986-0.2005234,1.9659615,0.0931549,2.6595058,0.8605156c0.6688805,0.7412529,0.8913651,1.7831078,0.5836105,2.7329216
			l0.0001984,0.0001984c-0.0968037,0.298172,0.0664368,0.6183586,0.3646069,0.7151604
			c0.0005016,0.000164,0.0010033,0.0003281,0.0015068,0.0004883c0.2983723,0.0964775,0.6185112-0.0669022,0.7154503-0.3651276
			l0.0001984-0.0023651C25.1449966,39.6140289,24.8821049,38.1420746,23.9069195,37.0624809"/>
		<path fill="#FF9933" d="M22.4097023,38.4134521c-0.4744682-0.5263748-1.1749191-0.7263069-1.8216877-0.5887413
			c-0.2656975,0.0486069-0.4416847,0.3034019-0.3930759,0.5690994c0.0486069,0.2656975,0.3034019,0.4416809,0.5690994,0.393074
			c0.0093403-0.001709,0.0186291-0.0036888,0.0278549-0.0059395v0.0003967
			c0.3270264-0.069931,0.6665478,0.0395546,0.8911076,0.287365c0.2241879,0.248455,0.298481,0.5977898,0.1947994,0.9159737
			h0.0003948c-0.0831051,0.2570724,0.0577946,0.5328636,0.3147984,0.6161766
			c0.257185,0.0829277,0.5329151-0.0582504,0.6159801-0.3153915C23.0122585,39.6564598,22.8851566,38.9396286,22.4097023,38.4134521
			"/>
		<path d="M16.4468842,43.987854c-0.0860519,0.1472321-0.2759171,0.2178917-0.4247322,0.1565094
			c-0.1464453-0.0603943-0.1924314-0.2246017-0.1091423-0.369072c0.0856562-0.1436844,0.2684174-0.2137489,0.4142704-0.1559219
			C16.4756985,43.673645,16.5289879,43.8400269,16.4468842,43.987854 M15.6639338,44.9930382
			c-0.2376289,0.3791389-0.7466354,0.5453224-1.1301165,0.3702583c-0.377759-0.1719055-0.4892702-0.6126251-0.2512474-0.9822922
			c0.2346678-0.3680878,0.7265043-0.5322952,1.1070251-0.3728218C15.7744589,44.17239,15.8976154,44.609951,15.6639338,44.9930382
			 M16.5570145,42.3092575c-1.1693926-0.3043404-2.4911518,0.2784805-2.9989738,1.3089294
			c-0.5172958,1.0507736-0.0169735,2.2172089,1.1640635,2.5987167c1.2238655,0.3945351,2.6662149-0.2099991,3.1677217-1.3444557
			C18.3846226,43.7636452,17.7670631,42.6220818,16.5570145,42.3092575 M30.5938721,38.877655
			c0.7551212-0.0067101,1.4689941-0.0789452,2.1429977-0.216114l0.032959,0.4061775
			c-0.7446594,0.0913811-1.3738613,0.1513786-1.8872108,0.1794052l-0.3296013,1.228405h1.993l-0.0959206,0.3586159h-0.7809753
			l-0.7401218,2.7629242h-0.4040089l0.7401218-2.7629242h-0.8080158l-0.0692749,0.2585487
			c-0.2889423,1.0789986-0.781765,1.9193802-1.4778748,2.520359c-0.0615749-0.1151199-0.127882-0.2276497-0.1987476-0.3372955
			c0.601965-0.4957848,1.0336037-1.2286034,1.2937317-2.1992493L30.5938721,38.877655L30.5938721,38.877655z M28.881525,41.8464317
			c0.1206722,0.2421799,0.232975,0.4884415,0.3367062,0.7383461l-0.4113102,0.2321014
			c-0.0835571-0.2613716-0.1846409-0.516819-0.3025608-0.764595l0.3771667-0.2058525H28.881525z M27.6633835,39.0359421h1.1792603
			c-0.0436668-0.1574783-0.0908489-0.3139648-0.1415119-0.4693336l0.3917713-0.1580925
			c0.064539,0.1792107,0.1215763,0.3601952,0.1705246,0.5431519l-0.2050648,0.0842743h1.1599197l-0.0905914,0.3372993h-2.5547009
			L27.6633835,39.0359421z M27.1614819,40.2594147h0.8786736c-0.0909863-0.237236-0.1821671-0.4413109-0.2729568-0.6116371
			l0.348547-0.2005234c0.0824986,0.1407204,0.1835499,0.3392715,0.3045349,0.5958481l-0.3661137,0.2163124h0.7201881
			c0.2629623-0.2657928,0.5189667-0.5383835,0.7677536-0.8174896l0.3309822,0.2109833
			c-0.2193565,0.2056007-0.4418793,0.4077911-0.66749,0.6065063h0.8275547l-0.0905914,0.3372955h-2.8714752L27.1614819,40.2594147z
			 M27.0497723,41.2454529h1.1135387l0.1340103-0.5009155h0.3933506l-0.134407,0.5009155h1.070118l-0.0907879,0.3372993h-1.0697231
			l-0.3690758,1.3762321c-0.0994701,0.3726273-0.3351269,0.5589409-0.7063713,0.5589409
			c-0.1561165,0-0.332365-0.0015793-0.5279541-0.0051308c0.0165787-0.1162491,0.0319729-0.2496681,0.0471687-0.4006538
			c0.2054577,0.0211182,0.3682842,0.0313797,0.488678,0.0313797c0.1705246,0,0.2804565-0.0892067,0.3286152-0.2686119
			l0.3455868-1.2919579h-1.1133404l0.0905914-0.3374977H27.0497723z M27.3162155,41.8199844l0.3260498,0.1687508
			c-0.2792587,0.3678055-0.5701942,0.7266045-0.8723583,1.07584c-0.0888138-0.0633545-0.1920357-0.1269073-0.3094692-0.1898689
			C26.7103024,42.6076736,26.9953003,42.2561646,27.3162155,41.8199844 M37.4687195,39.3998871h-2.3585243l-0.1721039,0.6430168
			h2.3585243L37.4687195,39.3998871z M37.032341,41.0291405l0.1732903-0.6485443h-2.358326l-0.1734848,0.6485443H37.032341z
			 M37.3875999,41.5563049l0.1800003,0.327034c-0.3866386,0.2076302-0.8279533,0.4215736-1.3245239,0.6436119
			c0.2822342,0.2776947,0.6791344,0.4671631,1.1903152,0.5690041c-0.1124992,0.0949326-0.2508507,0.2307205-0.4144707,0.4063759
			c-1.0401154-0.302166-1.632412-1.0103149-1.7778702-2.1250381h-0.6607819l-0.4480209,1.6714935
			c0.433033-0.1367302,0.8613586-0.2879333,1.2842598-0.4533501c-0.0580254,0.1898651-0.0961151,0.3390732-0.1142731,0.4482193
			c-0.4419022,0.1407204-0.884201,0.2970352-1.3268929,0.4691353c-0.1058998,0.0453987-0.2101135,0.0946426-0.3124275,0.1476326
			l-0.1523705-0.3688774c0.109539-0.0558548,0.1851311-0.1600647,0.2255898-0.3110504l1.0523567-3.9281731h1.3807716
			c-0.0350037-0.1705055-0.0771446-0.3394661-0.1263161-0.5064392l0.4219704-0.1476288
			c0.0631409,0.2153625,0.1159019,0.4336395,0.1580887,0.654068h1.3537292l-0.6629486,2.4729958H36.898922l0.0398674-0.1480255
			h-1.2777481c0.0635529,0.3339424,0.1843414,0.631176,0.361969,0.891304
			C36.4582024,42.0712318,36.9131279,41.8341942,37.3875999,41.5563049 M33.6962624,38.5243683
			c0.2196693,0.2105904,0.4642067,0.4679565,0.7324257,0.7699242c-0.1561165,0.1231575-0.2924957,0.2319069-0.4089432,0.3266411
			c-0.2944679-0.368679-0.5210457-0.6376877-0.6795273-0.8064346L33.6962624,38.5243683z M33.1229172,39.8903389
			c0.2232208,0.1863136,0.4788094,0.4253235,0.7685432,0.7172279c-0.1740799,0.1476288-0.3104591,0.2619057-0.4083519,0.3424301
			c-0.3157845-0.3546677-0.5544014-0.6059151-0.7150574-0.7539368l0.3548622-0.3057213H33.1229172z M33.2478485,41.4404526
			c0.128685,0.0633507,0.2579575,0.1231537,0.388813,0.1792068c-0.3988762,0.6996613-0.7799911,1.3691254-1.1443291,2.0089874
			l-0.4324265-0.1576958C32.4388466,42.8835907,32.8351593,42.2068214,33.2478485,41.4404526 M43.2625885,39.8218536h-0.6548615
			l-0.029995,0.049736c-0.1876984,0.7207794-0.252037,1.3519554-0.193222,1.8929367
			C42.6610184,41.3289413,42.9537125,40.6811867,43.2625885,39.8218536 M42.9207535,38.4507523l0.353878,0.0633545
			c-0.1401215,0.3145599-0.2914009,0.6240273-0.4535484,0.9278183h1.1766968l-0.101841,0.380127h-0.262104
			c-0.3465729,1.0071564-0.7353859,1.8043175-1.1676178,2.3908882c0.1042099,0.3921661,0.2887459,0.7268982,0.5522308,1.0047913
			c-0.116642,0.1369705-0.2293396,0.2723656-0.3374977,0.4057846c-0.2427139-0.3017921-0.4215889-0.6497459-0.5257797-1.0227509
			c-0.3169708,0.3672981-0.6927528,0.7207794-1.1271591,1.0598564c-0.0524521-0.114563-0.1123161-0.2255859-0.1792068-0.3323669
			c0.4938087-0.361969,0.9007759-0.7401199,1.2212982-1.1334686c-0.0728264-0.4888763-0.0503273-1.036171,0.0690804-1.6428757
			c-0.0949326,0.135788-0.1916389,0.2664452-0.2911148,0.3931541c-0.0528221-0.0978851-0.1159439-0.1898537-0.1882858-0.2743378
			C42.1407623,40.0695496,42.5611534,39.3296242,42.9207535,38.4507523 M39.8580284,40.2223091l0.3463783-1.2917595h0.3491402
			l-0.2504578,0.9333458h0.4480209l0.3590088-1.339325h0.3599968l-0.3588104,1.339325h0.447628l0.2514458-0.9384766h0.3497314
			l-0.3927574,1.4662323h-0.3495369l0.0448036-0.1689453H39.858036L39.8580284,40.2223091z M39.8412514,40.6916466h1.7360306
			l-0.0990753,0.369072H39.742569L39.8412514,40.6916466z M40.6682167,41.9046555h-0.7205849l-0.0647354,0.2425652
			c-0.1695366,0.6325569-0.4736786,1.0823517-0.9136086,1.3497849c-0.0431519-0.1161423-0.0948067-0.2289467-0.1545372-0.3374977
			c0.3365097-0.1829567,0.5739403-0.5340729,0.7136765-1.0547218l0.149601-0.5589409h1.4520187l-0.2457199,0.9173584
			c0.2369499-0.1627159,0.4722214-0.3278542,0.7057838-0.495388c-0.0080948,0.1545372-0.0138168,0.2895355-0.0161858,0.4057808
			c-0.282753,0.1830444-0.5609894,0.3729668-0.8344612,0.5695992c-0.0998688,0.0738144-0.1918411,0.1438789-0.2751274,0.2107887
			l-0.1884842-0.3372993c0.123745-0.0949326,0.207428-0.2212448,0.2498665-0.3797302L40.6682167,41.9046555L40.6682167,41.9046555z
			 M38.4723206,39.8532372c0.5786781-0.4497986,1.0454483-0.9086761,1.4001122-1.3764305l0.2895355,0.1847343
			c-0.4875908,0.6015701-1.0482903,1.1399918-1.6691246,1.6028061c-0.0034027-0.137188-0.0102501-0.2742653-0.0205269-0.4111099
			 M37.9897575,41.5511742c0.5354538-0.46381,1.0316315-1.0103149,1.4871521-1.6399117l0.3167725,0.1634178
			c-0.1997681,0.2638702-0.4087105,0.520668-0.6264381,0.7699242l-0.7419014,2.768055h-0.3714409l0.5940704-2.2146416
			c-0.2006874,0.2013168-0.4106483,0.3931656-0.6292038,0.5749245c-0.0061417-0.1408081-0.0158157-0.2814445-0.0290146-0.4217682
			 M48.8959999,39.0467987c-0.1940689-0.1200752-0.3936272-0.2310486-0.5980186-0.3325615l0.2407875-0.2690086
			c0.2059898,0.0938072,0.4081268,0.1958618,0.6059151,0.3059158l-0.2486801,0.2956543H48.8959999z M48.5513992,40.0695496
			h-1.0207748l-0.0947342,0.3532829h1.0203819L48.5513992,40.0695496z M47.2551003,41.0978241h1.0207787l0.0959167-0.3588104
			h-1.0205803L47.2551003,41.0978241L47.2551003,41.0978241z M46.0330124,40.4226341h1.0101166l0.0945396-0.3532829h-1.0095253
			l-0.0951309,0.3532867V40.4226341z M45.8524246,41.0978241h1.0095253l0.0959206-0.3588104h-1.0095291L45.8524246,41.0978241z
			 M45.2757225,42.6583977l0.3165741-0.263485c0.2115059,0.1599464,0.4131203,0.3325653,0.6037445,0.5169029l-0.3369026,0.2790756
			c-0.1829414-0.1897354-0.3778076-0.3675919-0.5834122-0.5324936 M48.1134529,41.7039375l0.0775642-0.2899323h-1.0209732
			l-0.0898018,0.3372993h-0.3933487l0.0907898-0.3372993h-1.009922l-0.1061821,0.3955231h-0.3933487l0.5540047-2.0672112h1.4034729
			l0.0933533-0.3483505h-1.6707001l0.0905914-0.3372993h1.6701088l0.1640091-0.6116371h0.3931541l-0.1638145,0.6116371h1.7466774
			l-0.0907898,0.3372993h-1.7468872l-0.09375,0.3483505h1.413929l-0.5249939,1.961422h-0.3931541L48.1134529,41.7039375z
			 M44.7996788,42.0307732h2.8008194l0.0817108-0.3055229h0.4036102l-0.081707,0.3055229h0.8788681l-0.0905876,0.3374977h-0.8788719
			l-0.1622353,0.6068993c-0.1067772,0.3970985-0.377758,0.5958481-0.8149261,0.5958481
			c-0.207428,0-0.4630165-0.0041466-0.7671585-0.0108566c0.0153961-0.1124992,0.0288162-0.2423668,0.0392761-0.3903885
			c0.288353,0.0246696,0.5469017,0.0371017,0.7760468,0.0371017c0.2005234,0,0.326046-0.0949326,0.3765717-0.2847977
			l0.1488152-0.5540047h-2.8008194l0.0905914-0.3372993H44.7996788z M44.0246239,39.9323807h0.5514412l0.3982849-1.4871521
			h0.4044037l-0.3988762,1.4871521h0.5242043l-0.1016426,0.3797302h-0.5242043l-0.8903198,3.3222618h-0.4038086l0.890316-3.3222618
			h-0.5512428l0.1014481-0.3797302H44.0246239z M29.1002064,45.1181679l-1.2974834,2.195694h-0.309864l-0.1130905-1.6306381
			l-0.9416332,1.6306381h-0.3144035l-0.151577-2.195694h0.3838768l0.0978947,1.6367531l0.9503174-1.6367531h0.2794685
			l0.1138821,1.6434631l0.9939346-1.6434631h0.3086815H29.1002064z M30.948143,45.9919052
			c0.029211-0.1233521,0.0365124-0.2324982,0.0197353-0.3282204c-0.0169716-0.0953255-0.0667076-0.1770363-0.1490097-0.2443352
			c-0.0826969-0.0676994-0.1947994-0.1016464-0.3363113-0.1016464c-0.1900635,0-0.3676929,0.0615807-0.5328884,0.1829605
			c-0.1651936,0.1217728-0.2834167,0.2853889-0.3546658,0.4912415h1.3531418H30.948143z M30.7904472,46.6591988l0.3388767,0.0651321
			c-0.1150646,0.1876945-0.2834167,0.3430214-0.5050583,0.4655876c-0.2183762,0.1223526-0.4647427,0.1860008-0.7150574,0.1847343
			c-0.3365078,0-0.5802555-0.1055908-0.7316341-0.3167725c-0.151577-0.2111816-0.1815777-0.4874954-0.0900002-0.8303185
			c0.0939465-0.3495369,0.2776928-0.6317673,0.5514412-0.8470955c0.2737465-0.2157211,0.5741348-0.3236809,0.9005795-0.3236809
			c0.3219032,0,0.5547962,0.0996704,0.6968994,0.2982216c0.142498,0.1983528,0.1636162,0.4955864,0.0617752,0.8911057h-1.7885284
			c-0.0892086,0.3319702-0.071249,0.5557823,0.0534878,0.671833c0.1210003,0.1145134,0.2820415,0.1770706,0.4486122,0.1742744
			c0.3138123,0,0.5735455-0.1446686,0.7786083-0.4330215 M32.7783165,44.3462677l-0.1014442,0.3803253h-0.4121017
			l0.1014481-0.3803253H32.7783165z M32.5598335,45.1179695l-0.5885468,2.1958923h-0.3828907l0.5887432-2.1958923H32.5598335z
			 M33.3477173,46.452755c-0.0424309,0.2257881-0.0086823,0.3892059,0.101841,0.4910469
			c0.1068115,0.1002007,0.248497,0.1547928,0.394928,0.1521683c0.1953926,0,0.3734169-0.0751953,0.53368-0.226181
			c0.1594696-0.1509857,0.274929-0.3576279,0.3453903-0.6203232c0.075985-0.28302,0.0775642-0.5054512,0.0051308-0.6668968
			c-0.0722351-0.1620369-0.2109833-0.2427597-0.4160461-0.2427597c-0.1610527,0-0.3219032,0.0576286-0.4819679,0.1730881
			c-0.157814,0.1116829-0.2796249,0.2669716-0.3505249,0.4468346L33.3477173,46.452755L33.3477173,46.452755z
			 M32.9190407,47.3138618H32.734108l0.7953835-2.9675941h0.3824959l-0.3047333,1.1370277
			c0.2516441-0.2840118,0.5319023-0.4263115,0.8407822-0.4263115c0.2826271,0,0.4930191,0.0996704,0.6305809,0.2984161
			c0.1379585,0.1985512,0.1557236,0.4872971,0.054081,0.8662415c-0.0872383,0.326046-0.2542076,0.6001892-0.5017052,0.8212357
			c-0.2467079,0.221447-0.5208473,0.3321686-0.8210411,0.3321686c-0.3349304,0-0.5536118-0.14151-0.6568336-0.4239426
			L32.9190407,47.3138618L32.9190407,47.3138618z M36.3871498,47.0920219c0.1948013,0,0.3773651-0.0718422,0.5472946-0.2155228
			c0.170723-0.1432877,0.296051-0.3667068,0.3773651-0.6694641c0.0811157-0.304142,0.0714455-0.5249939-0.0299988-0.6621628
			c-0.1014481-0.1363792-0.244339-0.2050629-0.4302559-0.2050629c-0.1900635,0-0.3694687,0.0690765-0.5386124,0.2074318
			c-0.1685524,0.1383514-0.2932854,0.3576241-0.3734169,0.6574249c-0.0850639,0.3175621-0.0799332,0.5449257,0.0148048,0.6817017
			C36.0500526,47.0235367,36.1937332,47.0920219,36.3871498,47.0920219 M36.2823486,47.3744545
			c-0.338089,0-0.5717697-0.1115112-0.7016335-0.3351288c-0.1298676-0.2236176-0.1496048-0.5003242-0.0613823-0.8311081
			c0.0941429-0.3497314,0.2751274-0.6292038,0.5439377-0.8378181c0.269207-0.2092056,0.5620995-0.3134155,0.8788719-0.3134155
			c0.3396645,0,0.5778847,0.1097336,0.7146606,0.3297958c0.1371727,0.2196693,0.1618423,0.4944038,0.0736198,0.8234138
			c-0.091774,0.3424301-0.2729568,0.622097-0.5419655,0.8391991C36.9192505,47.2662964,36.6172791,47.3744545,36.2823486,47.3744545
			 M38.6572533,46.8265648l-0.1302643,0.4872971h-0.5467033l0.1304588-0.4872971h0.546505H38.6572533z M40.9196587,46.5439377
			l0.3319702,0.0542755c-0.1140785,0.2427597-0.2729568,0.4328232-0.4774323,0.5701904
			c-0.2008133,0.1364975-0.4385033,0.2084541-0.6813049,0.2062454c-0.3398628,0-0.5686111-0.1121025-0.6866379-0.335125
			c-0.1182213-0.2238121-0.1340103-0.496376-0.04776-0.8182793c0.0892067-0.3333511,0.2573624-0.6112404,0.5048599-0.832489
			c0.2467079-0.2208519,0.5319023-0.3319702,0.8553848-0.3319702c0.268219,0,0.4642029,0.0716438,0.5877533,0.2141418
			c0.1231537,0.1428947,0.1744728,0.3274307,0.1523666,0.5534172l-0.3617706,0.0586166
			c0.0319748-0.361969-0.1154594-0.5431519-0.442688-0.5431519c-0.2111855,0-0.3951263,0.0797348-0.5516396,0.2401962
			c-0.1561165,0.1602592-0.2686119,0.367691-0.3372955,0.6224899c-0.0751991,0.2818375-0.0771713,0.5003242-0.0061226,0.6556511
			c0.0704613,0.1559181,0.2090111,0.2340736,0.4132843,0.2340736
			C40.4888077,47.0922203,40.7376862,46.9090652,40.9196587,46.5439377 M42.5556221,47.0920219
			c0.194603,0,0.3769684-0.0718422,0.5472946-0.2155228c0.1699295-0.1432877,0.2952614-0.3667068,0.3765755-0.6694641
			c0.0817108-0.304142,0.0716438-0.5249939-0.0299988-0.6621628c-0.1010475-0.1363792-0.244339-0.2050629-0.4294662-0.2050629
			c-0.1906548,0-0.3696671,0.0690765-0.5388069,0.2074318c-0.1685524,0.1383514-0.2928925,0.3576241-0.3738098,0.6574249
			c-0.0850677,0.3175621-0.0799332,0.5449257,0.0149994,0.6817017c0.0953293,0.1371689,0.2390099,0.2056541,0.4332199,0.2056541
			 M42.4500389,47.3744545c-0.338089,0-0.5715714-0.1115112-0.7012405-0.3351288s-0.1499977-0.5003242-0.0609894-0.8311081
			c0.0933571-0.3497314,0.2743416-0.6292038,0.5435448-0.8378181c0.2688141-0.2092056,0.5617027-0.3134155,0.878479-0.3134155
			c0.3396645,0,0.5782814,0.1097336,0.7152519,0.3297958c0.1369705,0.2196693,0.1612473,0.4944038,0.0730247,0.8234138
			c-0.091774,0.3424301-0.2725639,0.622097-0.5419693,0.8391991c-0.2686119,0.2169037-0.5711746,0.3250618-0.906105,0.3250618
			 M47.4761505,47.3138618h-0.3728256l0.3661118-1.3653755c0.0373039-0.1405258,0.0544739-0.2459183,0.0519104-0.3165779
			c-0.0035553-0.0700645-0.0392799-0.1346016-0.1083565-0.1932182c-0.0686836-0.0586205-0.1557198-0.088028-0.2617073-0.088028
			c-0.1456566,0-0.3033524,0.0601997-0.4707146,0.1790123c-0.1677628,0.1196022-0.284008,0.3023643-0.3499298,0.5471001
			l-0.3315735,1.2370872h-0.3704567l0.3870354-1.4459c0.0521049-0.1926308,0.0367126-0.3288116-0.0451965-0.4089432
			c-0.0776749-0.0776558-0.1834602-0.1205864-0.2932854-0.1190109c-0.1626282,0-0.320919,0.0617752-0.4744682,0.1867065
			c-0.1508179,0.1204338-0.258564,0.2864838-0.3071022,0.4732819l-0.3524933,1.3136673h-0.3655243l0.5885468-2.1958923h0.3292046
			l-0.112896,0.4219704c0.2698021-0.3221016,0.5654564-0.4825592,0.8873596-0.4825592
			c0.1772346,0,0.3138123,0.0511169,0.4097328,0.1539459c0.0953255,0.1032219,0.1419029,0.2267723,0.1391411,0.3722305
			c0.2628937-0.3509178,0.5688095-0.5261765,0.9185448-0.5261765c0.167366,0,0.3025627,0.0426292,0.405983,0.1278915
			c0.1028252,0.0854607,0.1584816,0.1839447,0.167366,0.2946663c0.008091,0.11092-0.0149994,0.2672348-0.0684853,0.4685478
			l-0.3659172,1.3655739H47.4761505z"/>
	</g>
</g>
</svg>
