<?xml version="1.0" encoding="utf-8"?>
<!-- Generator: Adobe Illustrator 25.0.0, SVG Export Plug-In . SVG Version: 6.00 Build 0)  -->
<svg version="1.2" baseProfile="tiny" xmlns="http://www.w3.org/2000/svg" xmlns:xlink="http://www.w3.org/1999/xlink" x="0px"
	 y="0px" viewBox="0 0 60 85" overflow="visible" xml:space="preserve">
<g id="фоны">
	<rect id="telegram" fill="#37AEE2" width="60" height="85"/>
</g>
<g id="иконки">
	<g id="traffic_1_">
		<path fill="#FFFFFF" d="M30,26.125c-9.0291748,0-16.375,7.3458252-16.375,16.375S20.9708252,58.875,30,58.875
			S46.375,51.5291748,46.375,42.5S39.0291748,26.125,30,26.125z M30.9825001,56.8729935v-2.5829926h-1.9650002v2.5829926
			c-7.1637344-0.4856834-12.905138-6.226757-13.3901653-13.3904953h2.5826645v-1.9649963h-2.5826645
			c0.4850273-7.1637383,6.2264309-12.9051399,13.3901653-13.3901672v2.5826645h1.9650002v-2.5826645
			c7.1637363,0.4850273,12.90481,6.226429,13.3904934,13.3901672h-2.5829926v1.9649963h2.5829926
			C43.88731,50.6462364,38.1462364,56.38731,30.9825001,56.8729935z"/>
		<path fill="#FFFFFF" d="M23.135273,45.6181259c1.0136108-0.6730118,2.1389027-1.0764923,3.2271843-1.4360847
			c0.1565456-0.0510902,0.3124332-0.1201935,0.4679966-0.1719398l0.032095-0.0199776
			c0.2302322-0.0805626,0.4480209-0.1604729,0.6261806-0.2583961c0.0081882-0.0196495,0.0199776-0.0530548,0.0340595-0.1048012
			c-0.8960381-1.3077049-1.5051899-3.3303452-1.5051899-5.0624924c0-1.4691658,0.4617767-2.5587578,1.3322716-3.2212906
			c-0.3759708-0.1906052-0.8305397-0.2636375-1.31917-0.2636375c-1.3024673,0-2.3579998,0.5200691-2.3579998,2.3881302
			c0,1.2405701,0.4650478,2.7618065,1.1590214,3.6450768c-0.006876,0.0697556-0.0147362,0.1398392-0.0275097,0.2092705
			c-0.0415916,0.1899529-0.1077461,0.4024963-0.2852516,0.5079536c-0.1987915,0.1182251-0.4201832,0.193222-0.6376419,0.2692032
			c-0.9019356,0.3035927-1.83531,0.5711594-2.6353931,1.1033478c-0.4162521,0.2737885-0.6985569,0.8187485-0.8537922,1.2857628
			c-0.1604748,0.4853554-0.2263031,0.9595757-0.2161503,1.6145782h2.4595261
			C22.7917252,45.7750015,22.9580956,45.7343903,23.135273,45.6181259z"/>
		<path fill="#FFFFFF" d="M38.7547302,43.2201729c-0.8007355-0.5315323-1.7341118-0.8079414-2.6360474-1.1115341
			c-0.2174606-0.0759811-0.4391785-0.1558914-0.6376419-0.2741203c-0.1778336-0.1054535-0.2443161-0.3206215-0.2852554-0.5102425
			c-0.018013-0.100544-0.0294724-0.2027245-0.0343857-0.3042488c0.6536903-0.8947296,1.0872993-2.3547249,1.0872993-3.5520668
			c0-1.8687134-1.0555344-2.3891106-2.3576736-2.3891106c-0.4958344,0-0.9543343,0.0759811-1.3342361,0.2721519
			c0.8636169,0.663517,1.3214645,1.7495041,1.3214645,3.2127762c0,1.6866264-0.5662498,3.6283722-1.4262657,4.9445953
			c0.0029488,0.0147362,0.0055695,0.0294724,0.007534,0.0442123c0.0222702,0.1025047,0.0409355,0.1558876,0.0523987,0.1827431
			c0.1886406,0.1044731,0.4146156,0.1873283,0.6664619,0.2764091l0.3772812,0.1254349
			c1.1167755,0.3710556,2.2715416,0.8197289,3.3110237,1.5101013c0.1686668,0.1097145,0.327179,0.1277275,0.4761887,0.4552269
			h2.4811401c0.0091705-0.6550026-0.0563316-1.1288948-0.2161522-1.6145744
			C39.4526329,44.0215645,39.1706543,43.4946175,38.7547302,43.2201729z"/>
		<path fill="#FFFFFF" d="M36.4330826,46.2407036c-1.0676498-0.7080536-2.311821-1.0810738-3.5137482-1.4852104
			c-0.2908211-0.1018524-0.5852432-0.2099266-0.8505173-0.3677826c-0.2374382-0.1408272-0.3255348-0.4273872-0.3805542-0.6805458
			c-0.0239086-0.1342735-0.0393009-0.2711678-0.046833-0.4067535c0.8718033-1.1924286,1.4501686-3.1390877,1.4501686-4.7353249
			c0-2.4916191-1.4072666-3.1859207-3.1439991-3.1859207c-1.7367344,0-3.144001,0.6936455-3.144001,3.1849403
			c0,1.6535454,0.6199589,3.6824112,1.5448189,4.8604279c-0.0085163,0.0926819-0.0196514,0.1853638-0.036026,0.2787018
			c-0.0553474,0.2525024-0.1437721,0.5371017-0.380228,0.6769447c-0.2659302,0.1571999-0.5603504,0.2570877-0.8508434,0.3592682
			c-1.2025814,0.4044609-2.4467525,0.7617645-3.5137482,1.4704742c-0.5551128,0.3648338-0.9314098,1.0705948-1.1387177,1.6931725
			c-0.2135296,0.645504-0.300972,1.4744034-0.2878723,2.129406H30h7.8590164
			c0.0134277-0.6550026-0.0746689-1.483902-0.2878685-2.1300621C37.3635101,47.2795372,36.9875412,46.6065216,36.4330826,46.2407036
			z"/>
	</g>
</g>
</svg>
