<?xml version="1.0" encoding="utf-8"?>
<!-- Generator: Adobe Illustrator 25.0.0, SVG Export Plug-In . SVG Version: 6.00 Build 0)  -->
<svg version="1.2" baseProfile="tiny" xmlns="http://www.w3.org/2000/svg" xmlns:xlink="http://www.w3.org/1999/xlink" x="0px"
	 y="0px" viewBox="0 0 60 85" overflow="visible" xml:space="preserve">
<g id="фоны">
	<g id="vk">
		<rect id="canvas_background_2_" fill="#4C75A3" width="60" height="85"/>
	</g>
</g>
<g id="иконки">
	<g id="лайк_коммента_1_">
		<g>
			<path fill="#FFFFFF" d="M29.9953995,57.5865021l-4.2973442-4.297348H13.625v-25.185936h32.75v25.185936H34.2927437
				L29.9953995,57.5865021z M16.1371517,50.7677994h10.6007309l3.2575169,3.2575188l3.257515-3.2575188h10.6007309V30.6153698
				H16.1371517V50.7677994z"/>
		</g>
		<path id="лайк_8_" fill="#FFFFFF" d="M34.4181252,34.8382988c2.0082397,0,3.61483,1.6065903,3.61483,3.61483
			S34.11689,44.8794937,30,48.293499c-4.11689-3.5144157-8.0329552-7.9325409-8.0329552-9.8403702
			c0-2.0082397,1.6065903-3.61483,3.61483-3.61483C27.9917622,34.8382988,30,37.8506584,30,37.8506584
			S31.9078255,34.8382988,34.4181252,34.8382988 M34.4181252,32.8300591c-1.807415,0-3.4140053,0.9037094-4.4181252,2.3094749
			c-1.0041199-1.4057655-2.6107101-2.3094749-4.4181252-2.3094749c-3.1127701,0-5.6230679,2.5102997-5.6230679,5.6230698
			C19.958807,42.871254,30,50.9042091,30,50.9042091s10.0411949-8.0329552,10.0411949-12.4510803
			C40.0411949,35.3403587,37.5308952,32.8300591,34.4181252,32.8300591L34.4181252,32.8300591z"/>
	</g>
</g>
</svg>
