<?xml version="1.0" encoding="utf-8"?>
<!-- Generator: Adobe Illustrator 25.0.0, SVG Export Plug-In . SVG Version: 6.00 Build 0)  -->
<svg version="1.2" baseProfile="tiny" xmlns="http://www.w3.org/2000/svg" xmlns:xlink="http://www.w3.org/1999/xlink" x="0px"
	 y="0px" viewBox="0 0 60 85" overflow="visible" xml:space="preserve">
<g id="фоны">
	
		<linearGradient id="yelp__x2F__digg_1_" gradientUnits="userSpaceOnUse" x1="4.1266537" y1="23.3201141" x2="52.3272133" y2="59.0511398">
		<stop  offset="0" style="stop-color:#FFFFFF"/>
		<stop  offset="1" style="stop-color:#D1D1D1"/>
	</linearGradient>
	<rect id="yelp__x2F__digg" fill-rule="evenodd" fill="url(#yelp__x2F__digg_1_)" width="60" height="85"/>
</g>
<g id="иконки">
	<g id="like_igs">
		<path fill="#EB455A" d="M29.9539413,56.9687576c-0.5424538,0-1.0296326-0.2045097-1.4066525-0.5933609L17.8181934,45.7561684
			c-0.0715523-0.0524597-0.2573586-0.2288513-0.4936771-0.47855c-0.2121696-0.2231293-0.5508881-0.6304016-1.011692-1.2219238
			c-0.4589596-0.5873489-0.8756418-1.2010727-1.2388926-1.8223648c-0.3762455-0.6436882-0.7128296-1.422554-1.0011225-2.3159409
			C13.7753038,38.9957809,13.625,38.0819321,13.625,37.2016335c0-2.8245506,0.8240547-5.084446,2.4504414-6.7134533
			c1.6271629-1.6310406,3.8755188-2.4569378,6.6833935-2.4569378c0.8041744,0,1.6347275,0.1427402,2.4699326,0.4279308
			c0.8138733,0.277626,1.5805206,0.6588154,2.28055,1.1298008c0.6635799,0.4485855,1.2339478,0.8689518,1.7124958,1.2632332
			c0.2496986,0.2045116,0.4936771,0.4166832,0.7321281,0.6361256c0.2382545-0.2194424,0.4832993-0.4316139,0.7337742-0.638258
			c0.4787426-0.392149,1.0473766-0.8125153,1.7116222-1.2611008c0.6982841-0.4709854,1.4659042-0.8521748,2.2787094-1.1298008
			c0.8360786-0.2833481,1.6665459-0.4279308,2.4707069-0.4279308c2.8078766,0,5.0563278,0.8258972,6.6834908,2.4569378
			c1.6263885,1.6290073,2.4511223,3.8889027,2.4511223,6.7134533c0,2.8357048-1.4131393,5.7224197-4.1993027,8.5790672
			L31.3483753,56.390522C30.9796925,56.7659912,30.4945507,56.9687576,29.9539413,56.9687576z"/>
	</g>
</g>
</svg>
