<?xml version="1.0" encoding="utf-8"?>
<!-- Generator: Adobe Illustrator 25.0.0, SVG Export Plug-In . SVG Version: 6.00 Build 0)  -->
<svg version="1.2" baseProfile="tiny" xmlns="http://www.w3.org/2000/svg" xmlns:xlink="http://www.w3.org/1999/xlink" x="0px"
	 y="0px" viewBox="0 0 60 85" overflow="visible" xml:space="preserve">
<g id="фоны">
	<rect id="snapchat" x="0" fill="#FFFC00" width="60" height="85"/>
</g>
<g id="иконки">
	<path id="лайк_6_" fill="#FFFFFF" stroke="#000000" stroke-width="0.75" stroke-miterlimit="10" d="M37.204998,31.0375004
		c3.2750015,0,5.8950005,2.6200008,5.8950005,5.8949986c0,3.2750015-6.3862495,10.4799995-13.0999985,16.0475044
		c-6.7137489-5.7312508-13.1000004-12.9362488-13.1000004-16.0475006c0-3.2750015,2.6200008-5.8950024,5.8950005-5.8950024
		C26.7250004,31.0375004,30,35.9500008,30,35.9500008S33.111248,31.0375004,37.204998,31.0375004 M37.204998,27.7625008
		c-2.9474983,0-5.5674973,1.4737492-7.204998,3.7662487c-1.6375008-2.2924995-4.2574997-3.7662487-7.2049999-3.7662487
		c-5.0762501,0-9.1700001,4.09375-9.1700001,9.1699982C13.625,44.1375008,30,57.2374992,30,57.2374992
		s16.375-13.0999985,16.375-20.3050003C46.375,31.8562508,42.28125,27.7625008,37.204998,27.7625008L37.204998,27.7625008z"/>
</g>
</svg>
