<?xml version="1.0" encoding="utf-8"?>
<!-- Generator: Adobe Illustrator 25.0.0, SVG Export Plug-In . SVG Version: 6.00 Build 0)  -->
<svg version="1.2" baseProfile="tiny" xmlns="http://www.w3.org/2000/svg" xmlns:xlink="http://www.w3.org/1999/xlink" x="0px"
	 y="0px" viewBox="0 0 60 85" overflow="visible" xml:space="preserve">
<g id="фоны">
	<g id="vk">
		<rect id="canvas_background_2_" fill="#4C75A3" width="60" height="85"/>
	</g>
</g>
<g id="иконки">
	<g id="коммент_коммента">
		<g id="комменты_3_">
			<g>
				<path fill="#FFFFFF" d="M42.6832657,39.6075783l-2.0929909-1.5652733l-5.1387978,0.7412872L33.905056,28.0633965
					l13.9397774-2.0108528l1.5464211,10.720192l-5.1427155,0.7418518L42.6832657,39.6075783z M36.3659439,37.5561485
					l4.5121155-0.6508827l1.5865479,1.1865234l1.1865234-1.5865479l4.5121155-0.6508865l-1.2373619-8.5777225L35.128582,28.9784279
					L36.3659439,37.5561485z"/>
			</g>
			<g>
				
					<rect x="37.5457535" y="29.7317677" transform="matrix(0.9897552 -0.1427751 0.1427751 0.9897552 -3.8988714 6.2120237)" fill="#FFFFFF" width="7.5822053" height="1.0843027"/>
			</g>
			<g>
				
					<rect x="37.8548126" y="31.874239" transform="matrix(0.9897552 -0.1427751 0.1427751 0.9897552 -4.2015967 6.2780991)" fill="#FFFFFF" width="7.5822053" height="1.0843027"/>
			</g>
			<g>
				
					<rect x="38.1755219" y="34.1751595" transform="matrix(0.9897552 -0.1427751 0.1427751 0.9897552 -4.5379133 6.1929321)" fill="#FFFFFF" width="5.4175563" height="1.0843027"/>
			</g>
		</g>
		<g id="комменты_4_">
			<g>
				<path fill="#FFFFFF" d="M20.7762356,58.158802l-2.4239464-3.521965L10,53.0944366l3.2176437-17.4239464l22.6568565,4.1839981
					l-3.2176437,17.4239426l-8.358654-1.5435753L20.7762356,58.158802z M12.0600557,51.6710739l7.3337164,1.3543015
					l1.8374252,2.669754l2.669754-1.8374214l7.3337173,1.3543015l2.574585-13.9417l-19.174614-3.5409393L12.0600557,51.6710739z"/>
			</g>
			<g>
				
					<rect x="22.690815" y="36.7866325" transform="matrix(0.1815975 -0.9833729 0.9833729 0.1815975 -22.9776154 58.3675385)" fill="#FFFFFF" width="1.7737968" height="12.4036331"/>
			</g>
			<g>
				
					<rect x="22.0477562" y="40.2688713" transform="matrix(0.1815975 -0.9833729 0.9833729 0.1815975 -26.9282398 60.5850487)" fill="#FFFFFF" width="1.7737968" height="12.4036331"/>
			</g>
			<g>
				
					<rect x="19.6624012" y="45.2065125" transform="matrix(0.1815975 -0.9833729 0.9833729 0.1815975 -31.9948425 60.8313026)" fill="#FFFFFF" width="1.7737968" height="8.8625107"/>
			</g>
		</g>
	</g>
</g>
</svg>
