<?xml version="1.0" encoding="utf-8"?>
<!-- Generator: Adobe Illustrator 25.0.0, SVG Export Plug-In . SVG Version: 6.00 Build 0)  -->
<svg version="1.2" baseProfile="tiny" xmlns="http://www.w3.org/2000/svg" xmlns:xlink="http://www.w3.org/1999/xlink" x="0px"
	 y="0px" viewBox="0 0 60 85" overflow="visible" xml:space="preserve">
<g id="фоны">
	<g id="dzen_1_">
		<rect id="dzen" x="0" fill="#13254D" width="60" height="85"/>
		<circle display="none" fill="#FF102F" cx="29.8999996" cy="42.5999985" r="16.2999992"/>
		<g id="Слой_6" display="none">
			<polygon display="inline" fill="#FFFFFF" points="24,36.0999985 24,32.2999992 35.7000008,36.4000015 35.7000008,40 			"/>
		</g>
		<g id="Слой_7" display="none">
			<polygon display="inline" fill="#FFFFFF" points="24,45.4000015 24,49.0999985 35.7000008,53 35.7000008,49.4000015 			"/>
		</g>
		<g id="Слой_8" display="none">
			<polygon display="inline" fill="#CDD0CF" points="31.7999992,38.7000008 24,45.4000015 27.8999996,46.7999992 35.7000008,40 			
				"/>
		</g>
	</g>
</g>
<g id="иконки">
	<g id="видео_просмотры" transform="translate(0,-952.36218)">
		<path fill="#FFFFFF" d="M14.6029673,982.0721436c-0.5580893,0.0585327-0.9809523,0.5305176-0.977951,1.0916748v23.2888794
			c0.0000601,0.6029053,0.48878,1.0916138,1.0916662,1.0916748h30.5666504
			c0.6028862-0.000061,1.0916061-0.4887695,1.0916672-1.0916748v-23.2888794
			c-0.000061-0.6029053-0.488781-1.0916138-1.0916672-1.0916748H14.7166824
			C14.6788025,982.0701904,14.6408463,982.0701904,14.6029673,982.0721436z M15.8083477,984.2554932h28.3833218v21.1055298
			H15.8083477V984.2554932z M25.121624,987.5305176c-0.5445404,0.0744019-0.9488468,0.5420532-0.9438362,1.0916138v12.3722534
			c0.0053082,0.6029663,0.498394,1.0874023,1.1013412,1.0820923c0.1664867-0.0014648,0.3304348-0.0409546,0.4793015-0.1155396
			l12.3722153-6.1860962c0.5369682-0.274292,0.7499008-0.9319458,0.4756012-1.4689331
			c-0.1045341-0.2046509-0.2709656-0.3710327-0.4756012-0.4755859l-12.3722153-6.1860962
			C25.5625229,987.5428467,25.3405075,987.5031738,25.121624,987.5305176z M26.3611202,990.3733521l8.847044,4.4349365
			l-8.847044,4.4121094V990.3733521z"/>
	</g>
</g>
</svg>
