<?xml version="1.0" encoding="utf-8"?>
<!-- Generator: Adobe Illustrator 25.0.0, SVG Export Plug-In . SVG Version: 6.00 Build 0)  -->
<svg version="1.2" baseProfile="tiny" xmlns="http://www.w3.org/2000/svg" xmlns:xlink="http://www.w3.org/1999/xlink" x="0px"
	 y="0px" viewBox="0 0 60 85" overflow="visible" xml:space="preserve">
<g id="фоны">
	<rect id="telegram" fill="#37AEE2" width="60" height="85"/>
</g>
<g id="иконки">
	<g id="HYPERVOTE">
		<rect x="14.1535177" y="29.3929558" fill="#8ACBE6" width="10.3764095" height="13.1070433"/>
		<circle fill="#E8E8E8" cx="19.6147861" cy="35.9464798" r="3.2767608"/>
		<polygon fill="#EF476F" points="18.5225334,34.3080978 18.5225334,37.5848579 21.2531662,35.9464798 		"/>
		<rect x="24.5299282" y="26.662323" fill="#99E1FF" width="10.9225359" height="13.1070433"/>
		<path fill="#C1C1C1" d="M31.0834484,34.3080978H28.898941c-1.2063923,0-2.1845074,0.9781151-2.1845074,2.1845055v3.2767639
			h6.5535221v-3.2767639C33.2679558,35.2862129,32.2898445,34.3080978,31.0834484,34.3080978z"/>
		<circle fill="#C1C1C1" cx="29.9911957" cy="32.1235924" r="2.1845071"/>
		<rect x="35.4524651" y="29.3929558" fill="#8ACBE6" width="10.3764095" height="13.1070433"/>
		<path fill="#EF476F" d="M41.3271484,34.1797562l-0.9595451,1.0086975l-0.9595451-1.0086975
			c-0.5302887-0.5570488-1.3893433-0.5570488-1.919632,0c-0.5302925,0.5570526-0.5302925,1.4603462,0,2.017395l2.8791771,3.0260887
			l2.8791809-3.0260887c0.5302887-0.5570488,0.5302887-1.4603424,0-2.017395
			C42.7164955,33.6227074,41.8574371,33.6227074,41.3271484,34.1797562z"/>
		<path fill="#C1C1C1" d="M25.6221809,55.1128006v2.6787491c0,0.2785263,0.2676029,0.5461273,0.5980091,0.5461273h7.5414639
			c0.3309517,0,0.5985565-0.267601,0.5985565-0.598011v-2.6787491L25.6221809,55.1128006z"/>
		<g>
			<path fill="#4C4C4C" d="M29.9911957,57.2454224L29.9911957,57.2454224c-0.3014622,0-0.5461273-0.2446632-0.5461273-0.5461273l0,0
				c0-0.3014603,0.2446651-0.5461235,0.5461273-0.5461235l0,0c0.3014603,0,0.5461273,0.2446632,0.5461273,0.5461235l0,0
				C30.537323,57.0007591,30.2926559,57.2454224,29.9911957,57.2454224z"/>
		</g>
		<path fill="#3D3D3D" d="M25.0760536,45.3343964v12.4571533c0,0.5920029,0.523735,1.0922546,1.1441364,1.0922546h7.5420094
			c0.6307793,0,1.1441383-0.5133591,1.1441383-1.1446838V45.283062c0-0.6313248-0.5133591-1.14468-1.1441383-1.14468h-7.5420113
			C25.5784912,44.138382,25.0760536,44.6637535,25.0760536,45.3343964z M33.7621994,57.7915497h-7.5420113
			c-0.020752,0-0.0376835-0.0109215-0.0458736-0.0109215c-0.0032768,0-0.0054626,0.0016365-0.0060081,0.0065536v-2.1801376
			h7.6457767v2.1320763C33.8140831,57.7680664,33.7911453,57.7915497,33.7621994,57.7915497z M33.8140831,45.283062v9.2317276
			h-7.6457748v-9.1803932c0-0.0043678,0.0005455-0.1037636,0.0518818-0.1037636h7.5420094
			C33.7911453,45.2306328,33.8140831,45.2541161,33.8140831,45.283062z"/>
		<path fill="#3D3D3D" d="M45.8288727,28.8468304h-9.8302841V26.662323c0-0.3020077-0.2446632-0.5461273-0.5461235-0.5461273
			H24.5299282c-0.3014622,0-0.5461273,0.2441196-0.5461273,0.5461273v2.1845074h-9.8302832
			c-0.3014612,0-0.5461264,0.2441177-0.5461264,0.5461254V42.5c0,0.3020096,0.2446651,0.5461273,0.5461264,0.5461273h10.9225359
			c0.3014622,0,0.5461273-0.2441177,0.5461273-0.5461273v-2.1845055h8.7380295V42.5
			c0,0.3020096,0.2446671,0.5461273,0.5461273,0.5461273h10.9225349c0.3014603,0,0.5461273-0.2441177,0.5461273-0.5461273
			V29.3929558C46.375,29.0909481,46.1303329,28.8468304,45.8288727,28.8468304z M24.5299282,41.9538727H14.699645V29.9390831
			h9.2841558v9.8302841c0,0.3020058,0.2446651,0.5461273,0.5461273,0.5461273V41.9538727z M25.0760536,39.2232399V27.2084503
			h9.8302841v12.0147896h-1.0922546v-2.7306366c0-1.1763535-0.752018-2.1719437-1.7967567-2.5553246
			c0.4330788-0.4838676,0.7045021-1.1151924,0.7045021-1.8136864c0-1.5056725-1.2249622-2.7306366-2.7306328-2.7306366
			c-1.5056725,0-2.7306347,1.2249641-2.7306347,2.7306366c0,0.698494,0.2714252,1.3298187,0.704504,1.8136864
			c-1.0447407,0.3833809-1.7967567,1.3789711-1.7967567,2.5553246v2.7306366H25.0760536z M28.3528156,32.1235924
			c0-0.9032955,0.7350864-1.638382,1.6383801-1.638382s1.6383801,0.7350864,1.6383801,1.638382
			c0,0.9032936-0.7350864,1.6383781-1.6383801,1.6383781S28.3528156,33.026886,28.3528156,32.1235924z M27.260561,36.4926033
			c0-0.9032898,0.7350883-1.6383781,1.6383801-1.6383781h2.1845074c0.9032936,0,1.6383801,0.7350883,1.6383801,1.6383781v2.7306366
			H27.260561V36.4926033z M45.2827454,41.9538727h-9.8302803v-1.6383781c0.3014603,0,0.5461235-0.2441216,0.5461235-0.5461273
			v-9.8302841h9.2841568V41.9538727z"/>
		<path fill="#3D3D3D" d="M37.0924797,36.5734329l2.8791809,3.0260887c0.1032219,0.1086769,0.2463074,0.1698456,0.3959427,0.1698456
			c0.1496391,0,0.2927246-0.0611687,0.3959427-0.1698456l2.8786354-3.0260887c0.7268944-0.7634888,0.7274399-2.0064697,0-2.770504
			c-0.72089-0.7574768-1.9895439-0.7574768-2.7104301,0l0,0l-0.5641479,0.5930939l-0.5641479-0.5930939
			c-0.7208862-0.7574768-1.9895401-0.7574768-2.7104263,0C36.3661346,34.5669632,36.3661346,35.809948,37.0924797,36.5734329z
			 M37.8843651,34.5560379c0.151825-0.1600151,0.352253-0.2479401,0.5636024-0.2479401
			c0.2118988,0,0.4123268,0.087925,0.5641518,0.2479401l0.9595451,1.009243c0.2064323,0.2162666,0.5848999,0.2162666,0.7913361,0
			l0.9595451-1.009243c0.3047409-0.3200302,0.8241043-0.3200302,1.1282997,0c0.3320465,0.3489761,0.3320465,0.9164009,0,1.264286
			l-2.483242,2.6104851l-2.4832382-2.6099396C37.5523224,35.4718933,37.5523224,34.905014,37.8843651,34.5560379z"/>
		<path fill="#3D3D3D" d="M19.6147861,32.1235924c-2.1080494,0-3.8228874,1.7153816-3.8228874,3.8228874
			c0,2.107502,1.714838,3.8228874,3.8228874,3.8228874s3.8228874-1.7153854,3.8228874-3.8228874
			C23.4376736,33.838974,21.7228355,32.1235924,19.6147861,32.1235924z M19.6147861,38.6771126
			c-1.5056725,0-2.7306347-1.2249641-2.7306347-2.7306328c0-1.5056725,1.2249622-2.7306366,2.7306347-2.7306366
			s2.7306347,1.2249641,2.7306347,2.7306366C22.3454208,37.4521484,21.1204586,38.6771126,19.6147861,38.6771126z"/>
		<rect x="29.4450684" y="40.861618" fill="#3D3D3D" width="1.0922536" height="2.730634"/>
		<path fill="#3D3D3D" d="M40.9137306,49.5996475v-6.0073929H39.821476v5.4612656h-4.3690109v1.0922546h4.9151382
			C40.6690674,50.1457748,40.9137306,49.9016571,40.9137306,49.5996475z"/>
		<path fill="#3D3D3D" d="M19.0686588,43.5922546v6.0073929c0,0.3020096,0.2446651,0.5461273,0.5461273,0.5461273h4.9151421
			v-1.0922546h-4.3690147v-5.4612656H19.0686588z"/>
	</g>
</g>
</svg>
