<?xml version="1.0" encoding="utf-8"?>
<!-- Generator: Adobe Illustrator 25.0.0, SVG Export Plug-In . SVG Version: 6.00 Build 0)  -->
<svg version="1.2" baseProfile="tiny" xmlns="http://www.w3.org/2000/svg" xmlns:xlink="http://www.w3.org/1999/xlink" x="0px"
	 y="0px" viewBox="0 0 60 85" overflow="visible" xml:space="preserve">
<g id="фоны">
	
		<linearGradient id="yelp__x2F__digg_1_" gradientUnits="userSpaceOnUse" x1="4.1266537" y1="23.3201141" x2="52.3272133" y2="59.0511398">
		<stop  offset="0" style="stop-color:#FFFFFF"/>
		<stop  offset="1" style="stop-color:#D1D1D1"/>
	</linearGradient>
	<rect id="yelp__x2F__digg" fill-rule="evenodd" fill="url(#yelp__x2F__digg_1_)" width="60" height="85"/>
</g>
<g id="иконки">
	<g id="репост">
		<path fill="#1EBEF0" d="M46.5986481,36.194931h-8.7716293v-6.3151493h2.0207062c0,0,0.4955139-0.6923122,1.5005951-1.342453
			h-4.1960449c-0.3725128,0-0.6747398,0.2987137-0.6747398,0.6712265v7.6576061c0,0.3689957,0.302227,0.6712265,0.6747398,0.6712265
			h10.1211128c0.3725128,0,0.6747437-0.2987137,0.6747437-0.6712265v-3.8305626l-1.3494835,1.1034851V36.194931z
			 M45.4740791,30.7864647v2.2456207l4.4982719-3.3561325l-4.4982719-3.3877602v2.0980225
			c-5.4400978,0-5.6228409,5.7739525-5.6228409,5.7739525C41.3904915,31.6474609,42.5220871,30.7864647,45.4740791,30.7864647z"/>
	</g>
	<path fill="#1EBEF0" d="M23.8016033,38.7339973c-0.717968,0.4786453-1.2763844,1.1966095-1.6752548,1.9943466l-0.1595478,0.4786453
		c-0.0797749,0.3190956-0.1595497,0.6381912-0.2393227,0.9572868c0,0.1595497,0,0.3190994-0.0797729,0.4786453v0.3190956v0.4786415
		l0.0797729,0.638195l0,0h-0.2393227h-0.1595478c-1.7550297,0-3.5100574-0.3988724-5.0257626-1.1168404l-0.8775148-0.3988686
		c-0.1595488-0.0797729-0.3190966-0.1595497-0.4786444-0.3190994c-1.0370617-0.5584183-1.9145765-1.3561554-2.7123165-2.1538963
		c-0.4786444-0.5584183-0.9572887-1.1168365-1.3561592-1.7550316c-0.3988705,0.7977409-0.7179661,1.8348045-0.7179661,2.8718643
		c0,0.3988724,0,0.717968,0.0797749,1.1168365c0,0.1595497,0,0.3190994,0.0797739,0.4786453
		c0.3190956,1.1168365,0.8775148,2.0741234,1.6752548,2.7920914l0.3988705,0.3988686l-0.4786444-0.2393112
		c-0.6381922-0.1595497-1.2763853-0.3988724-1.9145765-0.6381912c0.0797739,1.2763824,0.5584183,2.4729919,1.3561592,3.4302826
		c0.79774,0.8775101,1.7550287,1.5954781,2.9516392,1.9145775l-1.3561592,0.0797729h-1.1168356
		c0.79774,1.9943504,2.7920904,3.5100555,5.0257626,3.6696014c-2.0741253,1.5954819-4.7066669,2.3932228-7.4987574,2.3932228
		c2.0741243,1.2763824,4.4673452,2.0741196,7.0201139,2.2336693h1.6752548
		c7.9774036-0.3988686,14.1997738-7.0201111,14.1997738-15.0772858v-0.7977409
		c0.3190956-0.2393227,0.5584183-0.4786415,0.8775139-0.7977409c0.7179642-0.6381912,1.2763824-1.3561592,1.8348007-2.0741234
		c-0.7977409,0.5584183-1.8348007,0.7977409-2.8718643,0.7977409l0,0l0,0l0,0
		c0.9572906-0.6381912,1.7550278-1.5954819,2.1539001-2.7920914c-0.7977409,0.3988724-1.5954819,0.717968-2.4729939,0.9572906
		h-0.0797729l-0.638195,0.1595459c-0.9572887-1.0370636-2.313448-1.6752548-3.7493782-1.6752548l0,0h-0.0797729
		c-0.3988705,0-0.7977409,0-1.1966114,0.0797729c-0.5584183,0.1595497-1.1966095,0.3988686-1.59548,0.7179642L23.8016033,38.7339973
		z"/>
</g>
</svg>
