<?xml version="1.0" ?><svg id="Layer_1_1_" style="enable-background:new 0 0 64 64;" version="1.1" viewBox="0 0 64 64" xml:space="preserve" xmlns="http://www.w3.org/2000/svg" xmlns:xlink="http://www.w3.org/1999/xlink"><path d="M11.27,4.308L8,3v10l3.27-1.308C12.413,11.235,13.632,11,14.863,11H20V5h-5.137  C13.632,5,12.413,4.765,11.27,4.308z" style="fill:#E8E8E8;"/><rect height="6" style="fill:#EF476F;" width="4" x="16" y="5"/><path d="M52.73,4.308L56,3v10l-3.27-1.308C51.587,11.235,50.368,11,49.137,11H44V5h5.137  C50.368,5,51.587,4.765,52.73,4.308z" style="fill:#E8E8E8;"/><rect height="6" style="fill:#EF476F;" transform="matrix(-1 -4.479274e-11 4.479274e-11 -1 92 16)" width="4" x="44" y="5"/><path d="M47,32c0-8.52-7.103-15.381-15.711-14.984c-7.674,0.354-13.972,6.696-14.277,14.372  c-0.212,5.328,2.36,10.065,6.376,12.886C24.423,45.001,25,46.218,25,47.482V51h14v-3.52c0-1.271,0.59-2.486,1.629-3.218  C44.481,41.549,47,37.07,47,32z" style="fill:#FFED80;"/><path d="M44.941,24.432C44.976,24.951,45,25.473,45,26c0,11.685-8.716,21.328-20,22.799V51h14v-3.52  c0-1.271,0.59-2.486,1.629-3.218C44.481,41.549,47,37.07,47,32C47,29.237,46.244,26.655,44.941,24.432z" style="fill:#F2E079;"/><path d="M33,61h-2c-2.209,0-4-1.791-4-4v0h10v0C37,59.209,35.209,61,33,61z" style="fill:#6D6D6D;"/><circle cx="32" cy="31" r="8" style="fill:#E8E8E8;"/><path d="M32,30c-0.551,0-1-0.449-1-1s0.449-1,1-1s1,0.449,1,1h2c0-1.302-0.839-2.402-2-2.816V25h-2v1.184  c-1.161,0.414-2,1.514-2,2.816c0,1.654,1.346,3,3,3c0.551,0,1,0.449,1,1s-0.449,1-1,1s-1-0.449-1-1h-2c0,1.302,0.839,2.402,2,2.816  V37h2v-1.184c1.161-0.414,2-1.514,2-2.816C35,31.346,33.654,30,32,30z" style="fill:#6D6D6D;"/><path d="M32,40c4.962,0,9-4.038,9-9s-4.038-9-9-9s-9,4.038-9,9S27.038,40,32,40z M32,24c3.86,0,7,3.14,7,7  s-3.14,7-7,7s-7-3.14-7-7S28.14,24,32,24z" style="fill:#3D3D3D;"/><path d="M31,62h2c2.757,0,5-2.243,5-5c0-0.552-0.448-1-1-1H27c-0.552,0-1,0.448-1,1  C26,59.757,28.243,62,31,62z M35.829,58c-0.413,1.164-1.525,2-2.829,2h-2c-1.304,0-2.416-0.836-2.829-2H35.829z" style="fill:#3D3D3D;"/><path d="M16.013,31.349c-0.217,5.463,2.325,10.601,6.801,13.744C23.557,45.615,24,46.508,24,47.482V51  c0,0.552,0.448,1,1,1h14c0.552,0,1-0.448,1-1v-3.52c0-0.971,0.451-1.868,1.206-2.4C45.46,42.082,48,37.192,48,32  c0-4.414-1.759-8.524-4.952-11.573c-3.192-3.047-7.398-4.613-11.805-4.409C23.029,16.396,16.34,23.131,16.013,31.349z   M31.335,18.016c3.875-0.181,7.54,1.191,10.332,3.858C44.461,24.542,46,28.138,46,32c0,4.543-2.223,8.821-5.946,11.445  C38.768,44.351,38,45.859,38,47.48V50h-5v-3c0-0.304-0.138-0.591-0.375-0.781L29.851,44h4.735l-1.293,1.293l1.414,1.414L36,45.414  c0.574-0.574,0.744-1.429,0.434-2.179S35.397,42,34.586,42h-4.735c-0.861,0-1.602,0.525-1.887,1.338  c-0.285,0.812-0.035,1.686,0.638,2.223L31,47.48V50h-5v-2.518c0-1.625-0.761-3.129-2.037-4.025  c-3.917-2.751-6.142-7.248-5.952-12.028C18.297,24.239,24.15,18.347,31.335,18.016z" style="fill:#3D3D3D;"/><path d="M37.833,53H26.167C25.522,53,25,53.448,25,54l0,0c0,0.552,0.522,1,1.167,1h11.667  C38.478,55,39,54.552,39,54l0,0C39,53.448,38.478,53,37.833,53z" style="fill:#3D3D3D;"/><rect height="3.162" style="fill:#3D3D3D;" transform="matrix(0.3162 -0.9487 0.9487 0.3162 -0.9272 5.7136)" width="2" x="2.5" y="1.919"/><rect height="2" style="fill:#3D3D3D;" width="3" x="1" y="7"/><rect height="2" style="fill:#3D3D3D;" transform="matrix(0.9486 -0.3164 0.3164 0.9486 -3.7749 1.7494)" width="3.162" x="1.919" y="11.5"/><path d="M7.439,13.828C7.607,13.942,7.803,14,8,14c0.125,0,0.251-0.023,0.372-0.071l3.271-1.308  C12.671,12.208,13.755,12,14.863,12H16v4h2v-4h2c0.552,0,1-0.448,1-1V5c0-0.552-0.448-1-1-1h-5.137  c-1.108,0-2.192-0.208-3.221-0.621L8.372,2.071C8.063,1.949,7.715,1.987,7.439,2.172C7.165,2.358,7,2.668,7,3v10  C7,13.332,7.165,13.642,7.439,13.828z M19,10h-2V6h2V10z M9,4.477l1.899,0.76C12.166,5.743,13.499,6,14.863,6H15v4h-0.137  c-1.364,0-2.697,0.257-3.964,0.763L9,11.523V4.477z" style="fill:#3D3D3D;"/><rect height="2" style="fill:#3D3D3D;" transform="matrix(0.9486 -0.3164 0.3164 0.9486 2.0003 19.3204)" width="3.162" x="58.919" y="2.5"/><rect height="2" style="fill:#3D3D3D;" width="3" x="60" y="7"/><rect height="3.162" style="fill:#3D3D3D;" transform="matrix(0.3162 -0.9487 0.9487 0.3162 29.5097 65.9425)" width="2" x="59.5" y="10.919"/><path d="M44,12h2v4h2v-4h1.137c1.108,0,2.192,0.208,3.221,0.621l3.271,1.308C55.749,13.977,55.875,14,56,14  c0.197,0,0.393-0.058,0.561-0.172C56.835,13.642,57,13.332,57,13V3c0-0.332-0.165-0.642-0.439-0.828  c-0.274-0.186-0.624-0.224-0.932-0.101l-3.271,1.308C51.329,3.792,50.245,4,49.137,4H44c-0.552,0-1,0.448-1,1v6  C43,11.552,43.448,12,44,12z M53.101,5.237L55,4.477v7.046l-1.899-0.76C51.834,10.257,50.501,10,49.137,10H49V6h0.137  C50.501,6,51.834,5.743,53.101,5.237z M45,6h2v4h-2V6z" style="fill:#3D3D3D;"/><rect height="2" style="fill:#3D3D3D;" width="2" x="46" y="18"/><rect height="2" style="fill:#3D3D3D;" width="2" x="50" y="18"/><rect height="2" style="fill:#3D3D3D;" width="2" x="20" y="54"/><rect height="2" style="fill:#3D3D3D;" width="2" x="16" y="54"/><rect height="2" style="fill:#3D3D3D;" width="2" x="12" y="54"/><rect height="2" style="fill:#3D3D3D;" width="2" x="8" y="54"/><rect height="2" style="fill:#3D3D3D;" width="2" x="8" y="38"/><rect height="2" style="fill:#3D3D3D;" width="2" x="8" y="42"/><rect height="2" style="fill:#3D3D3D;" width="2" x="8" y="46"/><rect height="2" style="fill:#3D3D3D;" width="2" x="8" y="50"/><rect height="2" style="fill:#3D3D3D;" width="2" x="16" y="18"/><rect height="2" style="fill:#3D3D3D;" width="2" x="12" y="18"/><rect height="2" style="fill:#3D3D3D;" width="2" x="8" y="26"/><rect height="2" style="fill:#3D3D3D;" width="2" x="8" y="30"/><rect height="2" style="fill:#3D3D3D;" width="2" x="8" y="34"/><rect height="2" style="fill:#3D3D3D;" width="2" x="8" y="18"/><rect height="2" style="fill:#3D3D3D;" width="2" x="8" y="22"/><rect height="2" style="fill:#3D3D3D;" width="2" x="42" y="54"/><rect height="2" style="fill:#3D3D3D;" width="2" x="46" y="54"/><rect height="2" style="fill:#3D3D3D;" width="2" x="50" y="54"/><rect height="2" style="fill:#3D3D3D;" width="2" x="54" y="54"/><rect height="2" style="fill:#3D3D3D;" width="2" x="54" y="38"/><rect height="2" style="fill:#3D3D3D;" width="2" x="54" y="42"/><rect height="2" style="fill:#3D3D3D;" width="2" x="54" y="46"/><rect height="2" style="fill:#3D3D3D;" width="2" x="54" y="50"/><rect height="2" style="fill:#3D3D3D;" width="2" x="54" y="26"/><rect height="2" style="fill:#3D3D3D;" width="2" x="54" y="30"/><rect height="2" style="fill:#3D3D3D;" width="2" x="54" y="34"/><rect height="2" style="fill:#3D3D3D;" width="2" x="54" y="18"/><rect height="2" style="fill:#3D3D3D;" width="2" x="54" y="22"/></svg>