<?xml version="1.0" ?><svg id="Layer_1_1_" style="enable-background:new 0 0 64 64;" version="1.1" viewBox="0 0 64 64" xml:space="preserve" xmlns="http://www.w3.org/2000/svg" xmlns:xlink="http://www.w3.org/1999/xlink"><circle cx="38" cy="15" r="2" style="fill:#EF476F;"/><circle cx="39" cy="24" r="2" style="fill:#EF476F;"/><circle cx="38" cy="32" r="2" style="fill:#EF476F;"/><circle cx="49" cy="27" r="2" style="fill:#EF476F;"/><circle cx="46" cy="17" r="2" style="fill:#EF476F;"/><path d="M27,13c-1.69,0-3.17,0.84-4.07,2.12C22.63,15.05,22.32,15,22,15c-2.21,0-4,1.79-4,4  c0,0.14,0.03,0.27,0.04,0.4C16.25,20.16,15,21.93,15,24c0,1.13,0.39,2.16,1.02,3C15.39,27.84,15,28.87,15,30c0,1.63,0.79,3.09,2,4  h15V18C32,15.24,29.76,13,27,13z" style="fill:#F2D26E;"/><path d="M16,34c0,5.15,2.72,9.7,6.86,12.43C24.8,47.71,26,49.76,26,52h12c0-1.12,0.3-2.19,0.84-3.14  c0.54-0.96,1.33-1.79,2.3-2.43C45.28,43.7,48,39.15,48,34H16z" style="fill:#FFED80;"/><path d="M43.204,34c-2.23,8.272-8.955,14.697-17.396,16.493C25.93,50.981,26,51.485,26,52h12  c0-1.12,0.3-2.19,0.84-3.14c0.54-0.96,1.33-1.79,2.3-2.43C45.28,43.7,48,39.15,48,34H43.204z" style="fill:#F2E079;"/><path d="M32.944,62H31c-2.209,0-4-1.791-4-4v0h9.944v0C36.944,60.209,35.153,62,32.944,62z" style="fill:#6D6D6D;"/><path d="M31,63h1.944c2.757,0,5-2.243,5-5c0-0.552-0.447-1-1-1H27c-0.553,0-1,0.448-1,1  C26,60.757,28.243,63,31,63z M35.773,59c-0.413,1.164-1.525,2-2.829,2H31c-1.304,0-2.416-0.836-2.829-2H35.773z" style="fill:#3D3D3D;"/><path d="M40.874,14.188C40.517,12.93,39.371,12,38,12s-2.517,0.93-2.874,2.188l-2.979,0.745  C31.099,13.18,29.187,12,27,12c-1.722,0-3.354,0.749-4.483,2.031C22.34,14.01,22.17,14,22,14c-2.69,0-4.891,2.136-4.996,4.8  C15.158,19.86,14,21.831,14,24c0,1.056,0.282,2.08,0.82,3C14.282,27.92,14,28.944,14,30c0,1.268,0.418,2.494,1.148,3.508  C15.062,33.655,15,33.817,15,34c0,5.288,2.732,10.247,7.31,13.265C23.994,48.376,25,50.146,25,52c0,0.552,0.447,1,1,1h12  c0.553,0,1-0.448,1-1c0-0.928,0.238-1.818,0.711-2.65c0.457-0.811,1.142-1.532,1.979-2.085C46.268,44.247,49,39.288,49,34  c0-0.395-0.234-0.729-0.566-0.891l1.282-3.204C51.024,29.581,52,28.406,52,27c0-1.38-0.941-2.533-2.211-2.881L48.3,18.902  C48.731,18.383,49,17.726,49,17c0-1.654-1.346-3-3-3c-0.85,0-1.615,0.359-2.161,0.929L40.874,14.188z M46.518,19.948l1.236,4.332  c-0.637,0.293-1.15,0.802-1.453,1.434l-4.329-1.443C41.981,24.18,42,24.092,42,24c0-0.462-0.113-0.894-0.301-1.285l3.015-3.015  C45.106,19.887,45.538,20,46,20C46.177,20,46.349,19.977,46.518,19.948z M40.816,33C40.928,32.686,41,32.352,41,32  c0-0.101-0.02-0.197-0.03-0.296l6.218-2.329c0.146,0.112,0.302,0.209,0.468,0.292L46.323,33H40.816z M39.215,29.262l0.597-2.388  c0.508-0.144,0.965-0.408,1.325-0.774l4.811,1.604l-5.823,2.182C39.865,29.624,39.556,29.414,39.215,29.262z M39,23  c0.552,0,1,0.449,1,1s-0.448,1-1,1s-1-0.449-1-1S38.448,23,39,23z M37.188,29.126c-0.481,0.136-0.915,0.38-1.265,0.718L33,28.382  v-0.705l3.884-1.553c0.258,0.257,0.564,0.464,0.901,0.614L37.188,29.126z M36.031,24.31L33,25.523v-3.757l3.041,1.825  C36.023,23.726,36,23.86,36,24C36,24.106,36.021,24.207,36.031,24.31z M33,30.618l2.037,1.018C35.022,31.757,35,31.876,35,32  c0,0.352,0.072,0.686,0.184,1H33V30.618z M37,32c0-0.551,0.448-1,1-1s1,0.449,1,1s-0.448,1-1,1S37,32.551,37,32z M43.301,18.285  l-3.015,3.015c-0.14-0.067-0.287-0.119-0.438-0.164l-0.675-3.376c0.698-0.297,1.257-0.854,1.566-1.546l2.284,0.571  C43.016,16.858,43,16.927,43,17C43,17.462,43.113,17.894,43.301,18.285z M38,14c0.552,0,1,0.449,1,1s-0.448,1-1,1s-1-0.449-1-1  S37.448,14,38,14z M35.263,16.215c0.354,0.795,1.046,1.397,1.89,1.648l0.675,3.376c-0.323,0.138-0.612,0.336-0.866,0.572L33,19.434  V18c0-0.407-0.042-0.805-0.119-1.189L35.263,16.215z M16.819,27.6c0.133-0.178,0.2-0.389,0.2-0.6H18c1.654,0,3,1.346,3,3v1h2v-1  c0-2.757-2.243-5-5-5h-1.855C16.057,24.674,16,24.34,16,24c0-1.608,0.954-3.052,2.431-3.68c0.395-0.167,0.639-0.568,0.606-0.996  c-0.005-0.071-0.015-0.143-0.024-0.214C19.008,19.074,19,19.038,19,19c0-1.654,1.346-3,3-3c0,2.757,2.243,5,5,5h1v-2h-1  c-1.654,0-3-1.346-3-3v-0.621C24.752,14.511,25.845,14,27,14c2.206,0,4,1.794,4,4v6c-2.757,0-5,2.243-5,5h2c0-1.654,1.346-3,3-3v7  H17.391C16.526,32.243,16,31.152,16,30C16,29.145,16.283,28.315,16.819,27.6z M40.589,45.595c-1.103,0.728-2.009,1.687-2.618,2.771  c-0.467,0.821-0.771,1.717-0.9,2.634H33v-4c0-0.265-0.105-0.52-0.293-0.707l-3.586-3.586c-0.17-0.17-0.129-0.356-0.09-0.451  C29.071,42.16,29.174,42,29.414,42c0.109,0,0.216,0.044,0.293,0.121l0.586,0.586c0.941,0.94,2.473,0.94,3.414,0l0.587-0.586  C34.37,42.044,34.477,42,34.586,42c0.24,0,0.343,0.16,0.383,0.256c0.039,0.095,0.08,0.281-0.09,0.451l-1.586,1.586l1.414,1.414  l1.586-1.586c0.693-0.693,0.898-1.726,0.523-2.631S35.565,40,34.586,40c-0.637,0-1.259,0.258-1.707,0.707l-0.586,0.585  c-0.162,0.162-0.424,0.162-0.586,0l-0.585-0.585C30.673,40.258,30.051,40,29.414,40c-0.979,0-1.855,0.585-2.23,1.49  s-0.17,1.938,0.523,2.631L31,47.414V51h-4.07c-0.303-2.148-1.57-4.119-3.519-5.405c-3.723-2.454-6.055-6.361-6.373-10.595h29.924  C46.644,39.234,44.312,43.141,40.589,45.595z M49,28c-0.552,0-1-0.449-1-1s0.448-1,1-1s1,0.449,1,1S49.552,28,49,28z M46,16  c0.552,0,1,0.449,1,1s-0.448,1-1,1s-1-0.449-1-1S45.448,16,46,16z" style="fill:#3D3D3D;"/><rect height="4" style="fill:#3D3D3D;" width="2" x="31" y="1"/><rect height="2" style="fill:#3D3D3D;" width="4" x="58" y="31"/><rect height="2" style="fill:#3D3D3D;" width="4" x="2" y="31"/><rect height="4" style="fill:#3D3D3D;" transform="matrix(0.7071 -0.7071 0.7071 0.7071 -4.5513 10.9878)" width="2" x="9.988" y="8.988"/><rect height="2" style="fill:#3D3D3D;" transform="matrix(0.7071 -0.7071 0.7071 0.7071 8.2183 41.8163)" width="4" x="52.586" y="9.988"/><path d="M37,54H27c-0.552,0-1,0.448-1,1l0,0c0,0.552,0.448,1,1,1h10c0.552,0,1-0.448,1-1l0,0  C38,54.448,37.552,54,37,54z" style="fill:#3D3D3D;"/></svg>