<?xml version="1.0" ?><svg id="Layer_1_1_" style="enable-background:new 0 0 64 64;" version="1.1" viewBox="0 0 64 64" xml:space="preserve" xmlns="http://www.w3.org/2000/svg" xmlns:xlink="http://www.w3.org/1999/xlink"><ellipse cx="16" cy="47" rx="14" ry="15" style="fill:#EDBF89;"/><polygon points="29,41 30,47 36,47 36,41 " style="fill:#26547C;"/><path d="M47,39L47,39c-1.657,0-3-1.343-3-3v0h6v0C50,37.657,48.657,39,47,39z" style="fill:#6D6D6D;"/><path d="M57,17c0-5.899-5.107-10.604-11.141-9.937c-4.622,0.511-8.358,4.304-8.81,8.933  c-0.339,3.474,1.105,6.622,3.521,8.652c0.904,0.76,1.43,1.876,1.43,3.057V30h5h5v-2.295c0-1.169,0.505-2.286,1.403-3.034  C55.6,22.838,57,20.085,57,17z" style="fill:#FFED80;"/><path d="M55.73,12.137c-1.193,7.549-6.586,13.7-13.73,15.944V30h5h5v-2.295c0-1.169,0.505-2.286,1.403-3.034  C55.6,22.838,57,20.085,57,17C57,15.233,56.534,13.578,55.73,12.137z" style="fill:#F2E079;"/><path d="M16,63c7.955,0,14.465-6.644,14.953-15H36c0.553,0,1-0.448,1-1v-1.949c1.14,0.232,2,1.242,2,2.449v8  c0,2.481,2.019,4.5,4.5,4.5s4.5-2.019,4.5-4.5V39.858c1.721-0.447,3-2,3-3.858c0-0.552-0.447-1-1-1h-6c-0.553,0-1,0.448-1,1  c0,1.858,1.279,3.411,3,3.858V55.5c0,1.378-1.121,2.5-2.5,2.5S41,56.878,41,55.5v-8c0-2.31-1.756-4.197-4-4.449V41  c0-0.552-0.447-1-1-1h-6.532c-2.44-5.319-7.552-9-13.468-9C7.729,31,1,38.178,1,47S7.729,63,16,63z M45.269,37h3.463  c-0.346,0.597-0.992,1-1.731,1S45.614,37.597,45.269,37z M35,42v4h-4.047c-0.081-1.388-0.32-2.729-0.713-4H35z M16,33  c7.168,0,13,6.28,13,14s-5.832,14-13,14S3,54.72,3,47S8.832,33,16,33z" style="fill:#3D3D3D;"/><path d="M22,46c1.654,0,3-1.346,3-3h-2c0,0.551-0.448,1-1,1s-1-0.449-1-1h-2C19,44.654,20.346,46,22,46z" style="fill:#3D3D3D;"/><path d="M10,46c1.654,0,3-1.346,3-3h-2c0,0.551-0.448,1-1,1s-1-0.449-1-1H7C7,44.654,8.346,46,10,46z" style="fill:#3D3D3D;"/><path d="M12,52h-2c0,2.757,2.691,5,6,5s6-2.243,6-5h-2c0,1.654-1.794,3-4,3S12,53.654,12,52z" style="fill:#3D3D3D;"/><path d="M53,30v-2.295c0-0.887,0.38-1.713,1.043-2.266C56.558,23.341,58,20.265,58,17  c0-3.124-1.336-6.112-3.665-8.197c-2.326-2.083-5.455-3.075-8.586-2.733c-5.116,0.566-9.194,4.7-9.695,9.829  c-0.354,3.623,1.095,7.18,3.873,9.515C40.609,25.986,41,26.821,41,27.705V30c0,0.552,0.447,1,1,1h10C52.553,31,53,30.552,53,30z   M51,29h-3v-4c0-0.304-0.138-0.591-0.375-0.781l-4.335-3.468C43.105,20.604,43,20.384,43,20.148v-0.377  C43,19.346,43.346,19,43.771,19h0.28c0.259,0,0.499,0.128,0.643,0.344c0.516,0.773,1.377,1.234,2.306,1.234s1.79-0.461,2.306-1.233  C49.449,19.128,49.689,19,49.948,19h0.28C50.654,19,51,19.346,51,19.771v0.495c0,0.206-0.08,0.4-0.226,0.546l-2.481,2.481  l1.414,1.414l2.482-2.481C52.712,21.702,53,21.006,53,20.266v-0.495C53,18.243,51.757,17,50.229,17h-0.28  c-0.929,0-1.791,0.461-2.307,1.234c-0.207,0.31-0.518,0.343-0.642,0.343s-0.435-0.033-0.642-0.344C45.843,17.461,44.98,17,44.052,17  h-0.28C42.243,17,41,18.243,41,19.771v0.377c0,0.847,0.379,1.635,1.04,2.164L46,25.48V29h-3v-1.295c0-1.475-0.651-2.869-1.786-3.822  c-2.274-1.911-3.459-4.823-3.17-7.79c0.41-4.193,3.743-7.573,7.926-8.035c2.603-0.291,5.101,0.505,7.031,2.235  C54.907,12,56,14.444,56,17c0,2.67-1.181,5.186-3.238,6.902C51.643,24.836,51,26.222,51,27.705V29z" style="fill:#3D3D3D;"/><path d="M43,34h8c0.552,0,1-0.448,1-1l0,0c0-0.552-0.448-1-1-1h-8c-0.552,0-1,0.448-1,1l0,0  C42,33.552,42.448,34,43,34z" style="fill:#3D3D3D;"/><rect height="3" style="fill:#3D3D3D;" width="2" x="46" y="1"/><rect height="2" style="fill:#3D3D3D;" width="3" x="60" y="16"/><rect height="2" style="fill:#3D3D3D;" width="3" x="31" y="16"/><rect height="3" style="fill:#3D3D3D;" transform="matrix(0.7071 -0.7071 0.7071 0.7071 5.9921 27.9603)" width="2" x="35.747" y="5.247"/><rect height="2" style="fill:#3D3D3D;" transform="matrix(0.7071 -0.7071 0.7071 0.7071 11.9981 42.4601)" width="3" x="55.753" y="5.747"/></svg>