<?xml version="1.0" encoding="utf-8"?>
<!-- Generator: Adobe Illustrator 25.0.0, SVG Export Plug-In . SVG Version: 6.00 Build 0)  -->
<svg version="1.1" id="Layer_1_1_" xmlns="http://www.w3.org/2000/svg" xmlns:xlink="http://www.w3.org/1999/xlink" x="0px" y="0px"
	 viewBox="0 0 64 64" style="enable-background:new 0 0 64 64;" xml:space="preserve">
<style type="text/css">
	.st0{fill:#D5FF92;}
	.st1{fill:#51C454;}
	.st2{fill:#EF476F;}
	.st3{fill:#3D3D3D;}
</style>
<circle class="st0" cx="32" cy="28" r="25"/>
<circle class="st1" cx="32" cy="28" r="2"/>
<circle class="st2" cx="32" cy="41" r="6"/>
<polyline class="st2" points="39,63 39,51 51,51 51,47 13,47 13,51 25,51 25,63 "/>
<path class="st3" d="M51,46H36.8889999C38.1899986,44.7280006,39,42.9580002,39,41c0-3.8590012-3.1399994-7-7-7s-7,3.1409988-7,7
	c0,1.9580002,0.8099995,3.7280006,2.1110001,5H13c-0.552,0-1,0.4469986-1,1v4c0,0.5530014,0.448,1,1,1h11v11h2V51
	c0-0.5530014-0.448-1-1-1H14v-2h36v2H39c-0.5519981,0-1,0.4469986-1,1v12h2V52h11c0.5519981,0,1-0.4469986,1-1v-4
	C52,46.4469986,51.5519981,46,51,46z M27,41c0-2.757,2.243-5,5-5s5,2.243,5,5s-2.243,5-5,5S27,43.757,27,41z"/>
<path class="st3" d="M31,11v14.184C29.8390007,25.5979996,29,26.698,29,28c0,1.6539993,1.3460007,3,3,3
	c1.302002,0,2.4020004-0.8390007,2.8160019-2H44v-2h-9.1839981C34.5140038,26.1529999,33.8470001,25.4860001,33,25.184V11H31z
	 M32,29c-0.5510006,0-1-0.448-1-1s0.4489994-1,1-1c0.5510025,0,1,0.448,1,1S32.5509987,29,32,29z"/>
<path class="st1" d="M54.7350006,40.598999C56.8720016,36.7630005,58,32.4519997,58,28C58,13.6630001,46.3359985,2,32,2
	S6,13.6630001,6,28c0,5.6780014,1.7979999,11.0719986,5.2010002,15.6009979l1.599-1.2010002
	C9.8610001,38.4869995,8.2379999,33.8720016,8.04,29H11v-2H8.0249996C8.5380001,14.5609999,18.5610008,4.5380001,31,4.0250001V7h2
	V4.0250001C45.4389992,4.5380001,55.4620018,14.5609999,55.9749985,27H53v2h2.9630013
	c-0.1609993,3.9249992-1.2610016,7.7060013-3.2290001,11.0670013l-0.7439995-5.2080002l-1.9790001,0.2830009l1,7
	C51.0820007,42.6409988,51.5089989,43,51.9990005,43c0.0470009,0,0.0950012-0.0029984,0.1430016-0.0099983l7-1l-0.2830009-1.9799995
	L54.7350006,40.598999z"/>
</svg>
