<?xml version="1.0" ?><svg id="Layer_1_1_" style="enable-background:new 0 0 64 64;" version="1.1" viewBox="0 0 64 64" xml:space="preserve" xmlns="http://www.w3.org/2000/svg" xmlns:xlink="http://www.w3.org/1999/xlink"><circle cx="32" cy="14" r="4" style="fill:#99E1FF;"/><path d="M39,8v9c0,0.55-0.45,1-1,1H26c-0.55,0-1-0.45-1-1V8h-4v10c0,2.21,1.79,4,4,4h2v8h10v-8h2  c2.21,0,4-1.79,4-4V8H39z" style="fill:#99E1FF;"/><polygon points="7,3 8.236,5.633 11,6.056 9,8.106 9.472,11 7,9.633 4.528,11 5,8.106 3,6.056 5.764,5.633   " style="fill:#EF476F;"/><polygon points="57,3 58.236,5.633 61,6.056 59,8.106 59.472,11 57,9.633 54.528,11 55,8.106 53,6.056   55.764,5.633 " style="fill:#EF476F;"/><path d="M40.486,41.975L41,30H23l0.514,11.975c1.124,3.204,4.001,5.58,7.486,5.966V55h-3.279  c-0.43,0-0.813,0.275-0.949,0.684L25,61h14l-1.772-5.316C37.092,55.275,36.71,55,36.279,55H33v-7.059  C36.485,47.556,39.362,45.179,40.486,41.975z" style="fill:#FFDC73;"/><polygon points="36,61 28,61 29,57 35,57 " style="fill:#FFAC3E;"/><path d="M32,38c-0.551,0-1-0.449-1-1s0.449-1,1-1s1,0.449,1,1h2c0-1.302-0.839-2.402-2-2.816V33h-2v1.184  c-1.161,0.414-2,1.514-2,2.816c0,1.654,1.346,3,3,3c0.551,0,1,0.449,1,1s-0.449,1-1,1s-1-0.449-1-1h-2c0,1.302,0.839,2.402,2,2.816  V45h2v-1.184c1.161-0.414,2-1.514,2-2.816C35,39.346,33.654,38,32,38z" style="fill:#FFAC3E;"/><path d="M7.64,16.434C8.182,15.982,9,15.301,9,14H7c0,0.321-0.129,0.471-0.64,0.896  C5.818,15.348,5,16.029,5,17.33c0,1.302,0.818,1.983,1.359,2.435C6.844,20.169,7,20.327,7,20.665c0,0.337-0.156,0.495-0.641,0.898  C5.818,22.016,5,22.697,5,24h2c0-0.338,0.156-0.496,0.641-0.9C8.182,22.648,9,21.967,9,20.665c0-1.303-0.818-1.984-1.359-2.437  C7.156,17.825,7,17.667,7,17.33C7,17.009,7.129,16.859,7.64,16.434z" style="fill:#3D3D3D;"/><path d="M57.64,16.434C58.182,15.982,59,15.301,59,14h-2c0,0.321-0.129,0.471-0.64,0.896  C55.818,15.348,55,16.029,55,17.33c0,1.302,0.818,1.983,1.359,2.435c0.484,0.404,0.641,0.562,0.641,0.9  c0,0.337-0.156,0.495-0.641,0.898C55.818,22.016,55,22.697,55,24h2c0-0.338,0.156-0.496,0.641-0.9  C58.182,22.648,59,21.967,59,20.665c0-1.303-0.818-1.984-1.359-2.437C57.156,17.825,57,17.667,57,17.33  C57,17.009,57.129,16.859,57.64,16.434z" style="fill:#3D3D3D;"/><rect height="2" style="fill:#3D3D3D;" width="2" x="5" y="46"/><rect height="2" style="fill:#3D3D3D;" width="2" x="15" y="54"/><rect height="2" style="fill:#3D3D3D;" width="2" x="55" y="43"/><rect height="2" style="fill:#3D3D3D;" width="2" x="46" y="57"/><path d="M49,32c0-0.553-0.447-1-1-1h-6v-1c0-0.553-0.447-1-1-1h-3v-6h1c2.757,0,5-2.243,5-5V8  c0-0.553-0.447-1-1-1h-4c-0.553,0-1,0.447-1,1v9h-2.026C36.609,16.162,37,15.13,37,14c0-2.757-2.243-5-5-5s-5,2.243-5,5  c0,1.13,0.391,2.162,1.026,3H26V8c0-0.553-0.447-1-1-1h-4c-0.553,0-1,0.447-1,1v10c0,2.757,2.243,5,5,5h1v6h-3c-0.553,0-1,0.447-1,1  v1h-6c-0.553,0-1,0.447-1,1v2c0,4.226,3.296,7.688,7.451,7.972c1.173,3.761,4.512,6.574,8.549,6.977V54h-4  c-0.431,0-0.812,0.275-0.948,0.684l-2,6c-0.103,0.305-0.051,0.641,0.137,0.901C24.377,61.846,24.679,62,25,62h14  c0.321,0,0.623-0.154,0.812-0.415c0.188-0.261,0.239-0.597,0.137-0.901l-2-6C37.812,54.275,37.431,54,37,54h-4v-5.051  c4.037-0.403,7.376-3.216,8.549-6.977C45.704,41.688,49,38.226,49,34V32z M17,34v-1h5v6c0,0.309,0.019,0.614,0.047,0.917  C19.191,39.458,17,36.983,17,34z M37.612,60H26.388l1.333-4h8.559L37.612,60z M29,14c0-1.654,1.346-3,3-3s3,1.346,3,3s-1.346,3-3,3  S29,15.654,29,14z M27,21h-2c-1.654,0-3-1.346-3-3V9h2v8c0,1.103,0.897,2,2,2h12c1.103,0,2-0.897,2-2V9h2v9c0,1.654-1.346,3-3,3h-2  c-0.553,0-1,0.447-1,1v7h-8v-7C28,21.447,27.553,21,27,21z M40,39c0,4.411-3.589,8-8,8s-8-3.589-8-8v-8h16V39z M47,34  c0,2.983-2.191,5.458-5.047,5.917C41.981,39.614,42,39.309,42,39v-6h5V34z" style="fill:#3D3D3D;"/></svg>