<?xml version="1.0" encoding="utf-8"?>
<!-- Generator: Adobe Illustrator 22.1.0, SVG Export Plug-In . SVG Version: 6.00 Build 0)  -->
<svg version="1.0" id="Слой_1" xmlns="http://www.w3.org/2000/svg" xmlns:xlink="http://www.w3.org/1999/xlink" x="0px" y="0px"
	 viewBox="0 0 22 22" enable-background="new 0 0 22 22" xml:space="preserve">
<path fill="#D8194C" stroke="#000000" stroke-width="0.75" stroke-miterlimit="10" d="M1.5,1.5"/>
<polygon fill="#D8194C" points="2,2 4,3 6,2 6,1 7,1 7,7 6,7 6,3 4,4 2,3 2,7 1,7 1,1 2,1 "/>
<polyline fill="#D8194C" points="15,1 15,7 16,7 16,5 21,5 21,1 20,1 20,4 16,4 16,2 20,2 20,1 15,1 "/>
<polygon fill="#D8194C" points="1,8 1,14 7,14 7,8 6,8 6,13 2,13 2,9 6,9 6,8 "/>
<polygon fill="#D8194C" points="8,8 8,14 9,14 9,12 14,12 14,8 13,8 13,11 9,11 9,9 13,9 13,8 "/>
<polygon fill="#D8194C" points="15,8 15,14 21,14 21,8 20,8 20,13 16,13 16,8 "/>
<polygon fill="#D8194C" points="1,15 1,21 7,21 7,20 2,20 2,15 "/>
<polygon fill="#D8194C" points="8,21 8,15 14,15 14,21 13,21 13,16 9,16 9,18 13,18 13,19 9,19 9,21 "/>
<polygon fill="#D8194C" points="15,21 15,15 21,15 21,18 20,18 20,16 16,16 16,18 20,18 20,19 21,19 21,21 20,21 20,19 16,19 16,21 
	"/>
<polygon fill="#D8194C" points="8,7 8,1 14,1 14,4 13,4 13,2 9,2 9,4 13,4 13,5 14,5 14,7 13,7 13,5 9,5 9,7 "/>
</svg>
